SplineFontDB: 3.0
FontName: HoltwoodOneSC
FullName: Holtwood One SC
FamilyName: Holtwood One SC
Weight: Book
Copyright: Copyright (c) 2011 by vernon adams. All rights reserved.
Version: 1.000
ItalicAngle: 0
UnderlinePosition: -103
UnderlineWidth: 102
Ascent: 1638
Descent: 410
sfntRevision: 0x00010000
LayerCount: 2
Layer: 0 0 "Back"  1
Layer: 1 0 "Fore"  0
XUID: [1021 846 39740748 9178193]
FSType: 0
OS2Version: 2
OS2_WeightWidthSlopeOnly: 0
OS2_UseTypoMetrics: 1
CreationTime: 1301950740
ModificationTime: 1329053878
PfmFamily: 17
TTFWeight: 400
TTFWidth: 5
LineGap: 0
VLineGap: 0
Panose: 2 0 0 0 0 0 0 0 0 0
OS2TypoAscent: 819
OS2TypoAOffset: 1
OS2TypoDescent: -466
OS2TypoDOffset: 1
OS2TypoLinegap: 0
OS2WinAscent: 0
OS2WinAOffset: 1
OS2WinDescent: -350
OS2WinDOffset: 1
HheadAscent: 0
HheadAOffset: 1
HheadDescent: 350
HheadDOffset: 1
OS2SubXSize: 1434
OS2SubYSize: 1331
OS2SubXOff: 0
OS2SubYOff: 287
OS2SupXSize: 1434
OS2SupYSize: 1331
OS2SupXOff: 0
OS2SupYOff: 977
OS2StrikeYSize: 102
OS2StrikeYPos: 512
OS2Vendor: 'newt'
OS2CodePages: 00000013.00000000
OS2UnicodeRanges: 8000006f.5000004b.00000000.00000000
Lookup: 258 0 0 "'kern' Horizontal Kerning in Latin lookup 0"  {"'kern' Horizontal Kerning in Latin lookup 0 subtable"  } ['kern' ('DFLT' <'dflt' > 'latn' <'dflt' > ) ]
Lookup: 258 0 0 "'kern' Horizontal Kerning in Latin lookup 1"  {"'kern' Horizontal Kerning in Latin lookup 1 subtable"  } ['kern' ('DFLT' <'dflt' > 'latn' <'dflt' > ) ]
MarkAttachClasses: 1
DEI: 91125
KernClass2: 63 46 "'kern' Horizontal Kerning in Latin lookup 1 subtable" 
 6 period
 5 comma
 5 slash
 20 hyphen endash emdash
 24 quoteright quotedblright
 22 quoteleft quotedblleft
 9 backslash
 27 quotesinglbase quotedblbase
 12 questiondown
 9 trademark
 4 four
 20 quotedbl quotesingle
 8 asterisk
 9 ampersand
 15 R Racute Rcaron
 73 I M N Igrave Iacute Icircumflex Idieresis Ntilde Idotaccent Nacute Ncaron
 32 S Sacute Scedilla Scaron uni0218
 58 E AE Egrave Eacute Ecircumflex Edieresis Eogonek Ecaron OE

StartChar: .notdef
Encoding: 65536 -1 0
Width: 709
Flags: W
HStem: 0 68<150 558> 1297 68<150 558>
VStem: 82 68<68 1297> 558 68<68 1297>
LayerCount: 2
Fore
SplineSet
82 0 m 1
 82 1365 l 1
 626 1365 l 1
 626 0 l 1
 82 0 l 1
150 68 m 1
 558 68 l 1
 558 1297 l 1
 150 1297 l 1
 150 68 l 1
EndSplineSet
EndChar

StartChar: exclam
Encoding: 33 33 4
Width: 879
GlyphClass: 2
Flags: HW
HStem: 0 384<119 759> 1516 20G<54 823>
LayerCount: 2
Fore
SplineSet
54 1137 m 1
 54 1536 l 1
 823 1536 l 1
 823 1137 l 1
 695 512 l 1
 183 512 l 1
 54 1137 l 1
119 384 m 1
 759 384 l 1
 759 0 l 1
 119 0 l 1
 119 384 l 1
EndSplineSet
EndChar

StartChar: quotedbl
Encoding: 34 34 5
Width: 893
GlyphClass: 2
Flags: HW
HStem: 908 628<111 327 564 780>
VStem: 61 316<1268.21 1536> 514 316<1268.21 1536>
LayerCount: 2
Fore
SplineSet
830 1413 m 1
 780 908 l 1
 564 908 l 1
 514 1413 l 1
 514 1536 l 1
 830 1536 l 1
 830 1413 l 1
377 1413 m 1
 327 908 l 1
 111 908 l 1
 61 1413 l 1
 61 1536 l 1
 377 1536 l 1
 377 1413 l 1
EndSplineSet
EndChar

StartChar: numbersign
Encoding: 35 35 6
Width: 1512
GlyphClass: 2
Flags: HW
HStem: 0 21G<120 507.281 760 1147.28> 0 21G<120 507.281 760 1147.28> 256 384<56 162 610 802 1250 1403> 896 384<111 269 717 909 1357 1455> 1516 20G<372.641 760 1012.64 1400>
DStem2: 120 0 504 0 0.164399 0.986394<63.1292 259.422 711.848 908.304 1360.73 1557.19> 760 0 1144 0 0.164399 0.986394<63.1292 259.422 711.848 908.304 1360.73 1557.19>
LayerCount: 2
Fore
SplineSet
802 256 m 1xb8
 546 256 l 1
 504 0 l 1
 120 0 l 1
 162 256 l 1
 56 256 l 1
 56 640 l 1
 226 640 l 1
 269 896 l 1
 111 896 l 1
 111 1280 l 1
 333 1280 l 1
 376 1536 l 1
 760 1536 l 1
 717 1280 l 1
 973 1280 l 1
 1016 1536 l 1
 1400 1536 l 1
 1357 1280 l 1
 1455 1280 l 1
 1455 896 l 1
 1293 896 l 1
 1250 640 l 1
 1403 640 l 1
 1403 256 l 1
 1186 256 l 1
 1144 0 l 1
 760 0 l 1
 802 256 l 1xb8
610 640 m 1
 866 640 l 1
 909 896 l 1
 653 896 l 1
 610 640 l 1
EndSplineSet
EndChar

StartChar: dollar
Encoding: 36 36 7
Width: 1435
GlyphClass: 2
Flags: HW
HStem: 1183 737<711.123 907.072>
VStem: 591 320<-385 -33.3096 1564.29 1920>
LayerCount: 2
Fore
SplineSet
1388 482 m 0
 1388 162.954 1183.45 23.4092 911 -22 c 1
 911 -385 l 1
 591 -385 l 1
 591 -36 l 1
 381.992 -23.46 212.159 18.0498 67 87 c 1
 67 494 l 1
 368 494 l 1
 423.657 416.937 503.99 354 620 354 c 0
 712.789 354 748 404.267 748 502 c 1
 388.209 535.469 54 640.224 54 1033 c 0
 54 1388.73 272.438 1535.63 591 1569 c 1
 591 1920 l 1
 911 1920 l 1
 911 1567 l 1
 1084.3 1548.65 1232.07 1511.48 1355 1450 c 1
 1355 1043 l 1
 1054 1043 l 1
 1000.14 1119.04 924.368 1183 812 1183 c 0
 718.994 1183 680 1121.97 680 1024 c 1
 1089.2 1009.97 1388 899.744 1388 482 c 0
EndSplineSet
EndChar

StartChar: percent
Encoding: 37 37 8
Width: 3457
GlyphClass: 2
Flags: HW
HStem: -42 375<2676.02 2916.02> 0 21G<1204 1849> 0 21G<1204 1849> 378 375<542.019 782.023> 804 351<2675.31 2916.72> 1224 351<541.311 782.716> 1516 20G<1583 2228>
VStem: 55 434<813.569 1163.46> 836 434<813.747 1163.27> 1204 640<0 640> 1588 640<896 1536> 2189 434<393.569 743.464> 2970 434<393.747 743.271>
DStem2: 1204 0 1844 0 0.242536 0.970142<155.223 1583.27>
LayerCount: 2
Fore
SplineSet
1270 990 m 0x1d88
 1270 596.486 1049.55 378 662 378 c 256
 274.124 378 55 596.046 55 990 c 0
 55 1376.9 279.975 1575 662 1575 c 0
 1043.49 1575 1270 1376.38 1270 990 c 0x1d88
1588 1536 m 1x5b28
 2228 1536 l 1x5b28
 1844 0 l 1
 1204 0 l 1x5b48
 1588 1536 l 1x5b28
836 990 m 256x1d88
 836 1126.01 799.534 1224 662 1224 c 256
 523.995 1224 489 1126.64 489 990 c 256
 489 853.071 523.562 753 662 753 c 256
 799.969 753 836 853.69 836 990 c 256x1d88
3404 570 m 0
 3404 176.487 3183.55 -42 2796 -42 c 256
 2408.12 -42 2189 176.046 2189 570 c 0x9918
 2189 956.902 2413.97 1155 2796 1155 c 0
 3177.49 1155 3404 956.383 3404 570 c 0
2970 570 m 256
 2970 706.005 2933.53 804 2796 804 c 256
 2658 804 2623 706.638 2623 570 c 256
 2623 433.071 2657.56 333 2796 333 c 256
 2933.97 333 2970 433.69 2970 570 c 256
EndSplineSet
EndChar

StartChar: ampersand
Encoding: 38 38 9
Width: 2935
GlyphClass: 2
Flags: HW
HStem: -29 390<788.487 1297.54 2167.87 2474.4> 699 296<726.807 1476 2117 2500> 1251 308<737.811 967.714> 1516 20G<1476 2116>
VStem: 53 640<438.356 666.65> 73 620<1020.63 1208.46> 1476 640<441.217 699 996 1536>
LayerCount: 2
Fore
SplineSet
2116 504 m 2xd6
 2116 407.266 2210.25 361 2311 361 c 0
 2434.78 361 2521.05 422.743 2583 501 c 1
 2884 501 l 1
 2884 95 l 1
 2694.27 16.2451 2473.6 -29 2196 -29 c 0
 1948.49 -29 1761.17 31.9229 1633 143 c 1
 1428.93 20.1191 1163.85 -29 843 -29 c 0
 497.966 -29 216.433 75.6133 101.5 296 c 0
 69.167 358 53 421.667 53 487 c 0xda
 53 686.824 121.045 785.236 258 847 c 1
 146.354 886.873 73 991.122 73 1147 c 0
 73 1289.51 159.503 1355.12 244 1418 c 0
 369.297 1510.17 546.786 1559 773 1559 c 0
 987.695 1559 1164.97 1503.69 1321 1433 c 1
 1321 1113 l 1
 1020 1113 l 1
 1003.06 1191.36 948.992 1251 857 1251 c 0xe6
 769.75 1251 693 1197.08 693 1110 c 0
 693 1039.83 746.365 995 818 995 c 2
 1476 995 l 1
 1476 1536 l 1
 2116 1536 l 1
 2116 996 l 1
 2500 996 l 1
 2500 700 l 1
 2117 700 l 1
 2116.33 686.667 2116 673.667 2116 661 c 2
 2116 504 l 2xd6
693 544 m 0
 693 410.275 846.035 361 988 361 c 0
 1183.27 361 1345.08 400.49 1476 460 c 1
 1476 699 l 1
 818 699 l 2
 736.151 699 693 626.012 693 544 c 0
EndSplineSet
EndChar

StartChar: quotesingle
Encoding: 39 39 10
Width: 440
GlyphClass: 2
Flags: HW
HStem: 908 628<111 327>
VStem: 61 316<1268.21 1536>
LayerCount: 2
Fore
SplineSet
377 1413 m 1
 327 908 l 1
 111 908 l 1
 61 1413 l 1
 61 1536 l 1
 377 1536 l 1
 377 1413 l 1
EndSplineSet
EndChar

StartChar: parenleft
Encoding: 40 40 11
Width: 1055
GlyphClass: 2
Flags: HW
HStem: -41 372<835.189 991.934> 1205 372<835.666 991.938>
VStem: 54 608<533.015 1011.9>
LayerCount: 2
Fore
SplineSet
995 -21 m 1
 929.488 -34.3447 870.444 -41 797 -41 c 0
 325.955 -41 54 302.577 54 768 c 256
 54 1171 260.303 1448.81 570 1545 c 0
 638.667 1566.33 714.334 1577 797 1577 c 0
 870.334 1577 929.579 1570.33 995 1557 c 1
 995 1205 l 1
 759.218 1198.17 662 1007.9 662 768 c 256
 662 530.098 758.108 334.434 995 331 c 1
 995 -21 l 1
EndSplineSet
EndChar

StartChar: parenright
Encoding: 41 41 12
Width: 1055
GlyphClass: 2
Flags: HW
HStem: -41 372<62.0622 218.336> 1205 372<62.0662 218.332>
VStem: 392 608<524.093 1002.97>
LayerCount: 2
Fore
SplineSet
59 1557 m 1
 124.512 1570.34 183.556 1577 257 1577 c 0
 728.047 1577 1000 1233.42 1000 768 c 256
 1000 364.989 793.693 87.2158 484 -9 c 0
 415.333 -30.333 339.666 -41 257 -41 c 0
 183.666 -41 124.421 -34.3262 59 -21 c 1
 59 331 l 1
 294.788 337.841 392 528.065 392 768 c 0
 392 1007.83 294.777 1198.26 59 1205 c 1
 59 1557 l 1
EndSplineSet
EndChar

StartChar: asterisk
Encoding: 42 42 13
Width: 1225
GlyphClass: 2
Flags: HW
HStem: 1403 20G<215.138 257.123 954.474 995.806> 1517 20G<457 775>
VStem: 449 318<349 537.361 1325.25 1537>
DStem2: 230 1423 42 1170 0.802825 -0.596215<0 122.708 866.006 1185.72> 48 700 244 452 0.785616 0.618715<0.539474 123.767 885.038 1186.33>
LayerCount: 2
Fore
SplineSet
767 349 m 1
 449 349 l 1
 449 474 l 1
 469 652 l 1
 341 528 l 1
 244 452 l 1
 48 700 l 1
 145 776 l 1
 400 940 l 1
 140 1096 l 1
 42 1170 l 1
 230 1423 l 1
 329 1350 l 1
 475 1217 l 1
 457 1414 l 1
 457 1537 l 1
 775 1537 l 1
 775 1412 l 1
 754 1234 l 1
 883 1358 l 1
 980 1434 l 1
 1176 1186 l 1
 1079 1110 l 1
 822 947 l 1
 1084 790 l 1
 1182 716 l 1
 994 463 l 1
 895 536 l 1
 748 668 l 1
 767 472 l 1
 767 349 l 1
EndSplineSet
EndChar

StartChar: plus
Encoding: 43 43 14
Width: 1146
GlyphClass: 2
Flags: HW
HStem: 640 256<60 444 700 1084>
VStem: 444 256<256 640 896 1280>
LayerCount: 2
Fore
SplineSet
60 896 m 1
 444 896 l 1
 444 1280 l 1
 700 1280 l 1
 700 896 l 1
 1084 896 l 1
 1084 640 l 1
 700 640 l 1
 700 256 l 1
 444 256 l 1
 444 640 l 1
 60 640 l 1
 60 896 l 1
EndSplineSet
EndChar

StartChar: comma
Encoding: 44 44 15
Width: 780
GlyphClass: 2
Flags: HW
VStem: 72 640<0 512>
LayerCount: 2
Fore
SplineSet
72 512 m 1
 712 512 l 1
 712 1 l 2
 712 -307.724 504.003 -452 200 -452 c 1
 200 -128 l 1
 275.41 -124.031 327 -81.6582 327 0 c 1
 72 0 l 1
 72 512 l 1
EndSplineSet
EndChar

StartChar: hyphen
Encoding: 45 45 16
Width: 656
GlyphClass: 2
Flags: HW
HStem: 640 256<71 583>
VStem: 71 512<640 896>
LayerCount: 2
Fore
SplineSet
583 896 m 1
 583 640 l 1
 71 640 l 1
 71 896 l 1
 583 896 l 1
EndSplineSet
EndChar

StartChar: period
Encoding: 46 46 17
Width: 782
GlyphClass: 2
Flags: HW
HStem: 0 512<73 713>
VStem: 73 640<0 512>
LayerCount: 2
Fore
SplineSet
73 512 m 1
 713 512 l 1
 713 0 l 1
 73 0 l 1
 73 512 l 1
EndSplineSet
EndChar

StartChar: slash
Encoding: 47 47 18
Width: 1098
GlyphClass: 2
Flags: HW
HStem: 0 21G<37 682> 0 21G<37 682> 1516 20G<416 1061>
VStem: 37 640<0 640> 421 640<896 1536>
DStem2: 37 0 677 0 0.242536 0.970142<155.223 1583.27>
LayerCount: 2
Fore
SplineSet
421 1536 m 1xa8
 1061 1536 l 1xa8
 677 0 l 1
 37 0 l 1xb0
 421 1536 l 1xa8
EndSplineSet
EndChar

StartChar: zero
Encoding: 48 48 19
Width: 1780
GlyphClass: 2
Flags: HW
HStem: -29 494<767.431 1010.42> 1102 457<769.41 1009.1>
VStem: 54 640<551.155 1014.65> 1085 640<551.147 1015.16>
LayerCount: 2
Fore
SplineSet
1725 786 m 0
 1725 255.187 1413.37 -29 889 -29 c 0
 362.153 -29 54 255.199 54 786 c 0
 54 1296.85 381.217 1559 889 1559 c 0
 1400.89 1559 1725 1299.91 1725 786 c 0
1085 786 m 256
 1085 952.1 1056.13 1102 889 1102 c 256
 721.71 1102 694 952.081 694 786 c 256
 694 619.523 721.349 465 889 465 c 256
 1056.5 465 1085 619.492 1085 786 c 256
EndSplineSet
EndChar

StartChar: one
Encoding: 49 49 20
Width: 1007
GlyphClass: 2
Flags: HW
HStem: 0 21G<64 960> 0 21G<64 960> 1516 20G<635.077 832>
VStem: 192 640<424 1024>
LayerCount: 2
Fore
SplineSet
64 1458 m 1xb0
 832 1536 l 1
 832 424 l 1
 960 399 l 1
 960 0 l 1
 64 0 l 1
 64 399 l 1
 192 424 l 1
 192 1024 l 1
 64 1024 l 1
 64 1458 l 1xb0
EndSplineSet
EndChar

StartChar: two
Encoding: 50 50 21
Width: 1418
GlyphClass: 2
Flags: HW
HStem: 0 429<782 1350> 1113 446<444.041 671.327>
VStem: 719 640<821.593 1064.33>
LayerCount: 2
Fore
SplineSet
632 1559 m 0
 1025.49 1559 1359 1411.74 1359 1024 c 0
 1359 782.113 1218.87 643.729 1070 550 c 0
 988 497.333 892 457 782 429 c 1
 1350 429 l 1
 1350 0 l 1
 70 0 l 1
 70 515 l 1
 288.609 594.494 555.473 651.48 680 825.5 c 0
 706 861.833 719 902 719 946 c 0
 719 1051.37 654.863 1113 551 1113 c 0
 466.288 1113 403.812 1039.62 371 973 c 1
 70 973 l 1
 70 1433 l 1
 218.886 1511.17 396.864 1559 632 1559 c 0
EndSplineSet
EndChar

StartChar: three
Encoding: 51 51 22
Width: 1533
GlyphClass: 2
Flags: HW
HStem: -29 390<477.588 789.385> 619 296<452 811.932> 1173 386<477.342 787.403>
LayerCount: 2
Fore
SplineSet
369 501 m 1
 431.053 422.617 517.069 361 641 361 c 0
 741.767 361 836 407.263 836 504 c 0
 836 574.167 782.637 619 711 619 c 2
 452 619 l 1
 452 915 l 1
 711 915 l 2
 782.645 915 836 959.832 836 1030 c 0
 836 1126.73 741.748 1173 641 1173 c 0
 517.221 1173 430.953 1111.26 369 1033 c 1
 68 1033 l 1
 68 1433 l 1
 258.188 1511.86 476.968 1559 756 1559 c 0
 1073.5 1559 1327.93 1453.47 1431.5 1247.5 c 0
 1461.17 1188.5 1476 1128.33 1476 1067 c 0
 1476 911.562 1401.28 807.846 1291 767 c 1
 1397.42 721.392 1476 622.532 1476 467 c 0
 1476 213.375 1277.83 77.9033 1072.5 13.5 c 0
 982.167 -14.833 876.667 -29 756 -29 c 0
 478.348 -29 257.777 16.2246 68 95 c 1
 68 501 l 1
 369 501 l 1
EndSplineSet
EndChar

StartChar: four
Encoding: 52 52 23
Width: 1705
GlyphClass: 2
Flags: HW
HStem: 0 21G<564 1460> 0 21G<564 1460> 592 256<420 692 1332 1652>
VStem: 692 640<424 592 848 1168>
DStem2: 52 848 420 848 0.681104 0.732187<250.646 670.206>
LayerCount: 2
Fore
SplineSet
52 848 m 1xb0
 692 1536 l 1
 1332 1576 l 1
 1332 848 l 1
 1652 848 l 1
 1652 592 l 1
 1332 592 l 1
 1332 424 l 1
 1460 399 l 1
 1460 0 l 1
 564 0 l 1
 564 399 l 1
 692 424 l 1
 692 592 l 1
 52 592 l 1
 52 848 l 1xb0
420 848 m 1
 692 848 l 1
 692 1168 l 1
 420 848 l 1
EndSplineSet
EndChar

StartChar: five
Encoding: 53 53 24
Width: 1454
GlyphClass: 2
Flags: HW
HStem: -29 362<482.924 796.775> 679 293<556.177 947.003> 1063 473<937.428 1300> 1162 374<569 918.289>
VStem: 838 570<376.707 621.711>
LayerCount: 2
Fore
SplineSet
377 473 m 1xd8
 439.112 394.542 515.701 333 639 333 c 0
 774.553 333 838 368.754 838 506 c 0
 838 634.274 752.818 679 625 679 c 0
 475.241 679 333.298 657.749 204 634 c 1
 78 738 l 1
 78 1536 l 1xd8
 1300 1536 l 1
 1300 1063 l 1
 999 1063 l 1xe8
 932.747 1122.28 842.797 1162 727 1162 c 2
 569 1162 l 1
 554 927 l 1
 616.995 953.831 693.749 972 777 972 c 0
 1107.77 972 1408 844.874 1408 516 c 0
 1408 124.875 1079.29 -29 687 -29 c 0
 450.205 -29 245.588 22.0645 78 96 c 1
 78 473 l 1
 377 473 l 1xd8
EndSplineSet
EndChar

StartChar: six
Encoding: 54 54 25
Width: 1652
GlyphClass: 2
Flags: HW
HStem: -29 387<760.935 999.481> 650 285<705.036 1008.11> 1173 386<771.722 1058.15>
VStem: 1036 570<395.995 620.148>
LayerCount: 2
Fore
SplineSet
1163 1052 m 1
 1098.65 1112.96 1006.05 1173 891 1173 c 0
 745.4 1173 713.267 1066.96 702 925 c 1
 793.349 932.798 871.025 935 958 935 c 0
 1282.83 935 1606 839.799 1606 516 c 0
 1606 85.0059 1274.95 -29 836 -29 c 0
 299.383 -29 56 229.209 56 767 c 0
 56 1313.96 328.994 1559 876 1559 c 0
 1116.16 1559 1309.67 1512.04 1464 1433 c 1
 1464 1052 l 1
 1163 1052 l 1
1036 516 m 0
 1036 626.051 980.175 650 871 650 c 0
 797 650 740 644.667 700 634 c 1
 709.523 499.09 726.314 358 861 358 c 0
 981.835 358 1036 393.985 1036 516 c 0
EndSplineSet
EndChar

StartChar: seven
Encoding: 55 55 26
Width: 1262
GlyphClass: 2
Flags: HW
HStem: -1 21G<165 874.387> -1 21G<165 874.387> 1152 384<362.772 589>
LayerCount: 2
Fore
SplineSet
1207 1152 m 1xa0
 1055.91 797.165 924.774 419.272 824 -1 c 1
 165 -1 l 1
 261.967 422.128 397.119 833.1 589 1152 c 1
 429.027 1152 312.736 1092.83 222 1024 c 1
 55 1024 l 1
 55 1536 l 1
 1207 1536 l 1
 1207 1152 l 1xa0
EndSplineSet
EndChar

StartChar: eight
Encoding: 56 56 27
Width: 1561
GlyphClass: 2
Flags: HW
HStem: -29 366<634.28 934.099> 652 271<645.211 920.792> 1210 349<648.01 917.96>
VStem: 48 550<367.579 600.966> 98 520<959.576 1179.74> 948 520<959.607 1178.67> 968 550<366.394 596.278>
LayerCount: 2
Fore
SplineSet
783 1559 m 256xe8
 1144.21 1559 1468 1478.31 1468 1130 c 0xec
 1468 960.649 1357.31 857.723 1240 788 c 1
 1372.12 725.086 1518 624.028 1518 436 c 0
 1518 49.3818 1163.5 -29 765 -29 c 0
 380.678 -29 48 63.7588 48 436 c 0xf2
 48 624.014 192.872 725.082 325 788 c 1
 207.444 857.867 98 960.414 98 1130 c 0
 98 1478.76 421.803 1559 783 1559 c 256xe8
618 1060 m 0
 618 951.564 675.323 923 783 923 c 256
 890.672 923 948 951.562 948 1060 c 0
 948 1174.62 896.715 1210 783 1210 c 0
 669.078 1210 618 1174.67 618 1060 c 0
968 480 m 0xf2
 968 609.722 911.451 652 783 652 c 256
 654.556 652 598 609.724 598 480 c 0
 598 360.605 664.024 337 783 337 c 256
 901.972 337 968 360.604 968 480 c 0xf2
EndSplineSet
EndChar

StartChar: nine
Encoding: 57 57 28
Width: 1655
GlyphClass: 2
Flags: HW
HStem: -29 392<599.387 883.979> 610 284<643.448 950.136> 1207 352<654.092 893.348>
VStem: 49 570<920.068 1168.52>
LayerCount: 2
Fore
SplineSet
492 503 m 1
 554.053 424.617 640.069 363 764 363 c 0
 918.177 363 943.7 479.339 953 630 c 1
 870.468 612.493 788.961 610 693 610 c 0
 366.414 610 49 698.177 49 1020 c 0
 49 1436.26 368.044 1559 819 1559 c 0
 1351.97 1559 1599 1303.1 1599 769 c 0
 1599 219.189 1329.06 -29 779 -29 c 0
 542.885 -29 339.262 12.2793 191 97 c 1
 191 503 l 1
 492 503 l 1
619 1020 m 0
 619 914.772 679.295 894 784 894 c 0
 857.333 894 914.333 899.333 955 910 c 1
 944.897 1048.07 933.96 1207 794 1207 c 0
 654.421 1207 619 1161.79 619 1020 c 0
EndSplineSet
EndChar

StartChar: colon
Encoding: 58 58 29
Width: 799
GlyphClass: 2
Flags: HW
HStem: 0 512<80 720> 896 512<80 720>
VStem: 80 640<0 512 896 1408>
LayerCount: 2
Fore
SplineSet
80 1408 m 1
 720 1408 l 1
 720 896 l 1
 80 896 l 1
 80 1408 l 1
80 512 m 1
 720 512 l 1
 720 0 l 1
 80 0 l 1
 80 512 l 1
EndSplineSet
EndChar

StartChar: semicolon
Encoding: 59 59 30
Width: 798
GlyphClass: 2
Flags: HW
HStem: 896 512<77 717>
VStem: 81 640<0 512 896 1408>
LayerCount: 2
Fore
SplineSet
77 1408 m 1
 717 1408 l 1
 717 896 l 1
 77 896 l 1
 77 1408 l 1
81 512 m 1
 721 512 l 1
 721 1 l 2
 721 -307.724 513.003 -452 209 -452 c 1
 209 -128 l 1
 284.41 -124.031 336 -81.6582 336 0 c 1
 81 0 l 1
 81 512 l 1
EndSplineSet
EndChar

StartChar: less
Encoding: 60 60 31
Width: 1145
GlyphClass: 2
Flags: HW
HStem: 1401 20G<1012.9 1066>
LayerCount: 2
Fore
SplineSet
522 627 m 1
 1066 464 l 1
 1066 -17 l 1
 73 357 l 1
 73 1047 l 1
 1066 1421 l 1
 1066 789 l 1
 522 627 l 1
EndSplineSet
EndChar

StartChar: equal
Encoding: 61 61 32
Width: 856
GlyphClass: 2
Flags: HW
HStem: 172 256<79 777> 640 256<79 777>
VStem: 79 698<172 428 640 896>
LayerCount: 2
Fore
SplineSet
777 896 m 1
 777 640 l 1
 79 640 l 1
 79 896 l 1
 777 896 l 1
777 428 m 1
 777 172 l 1
 79 172 l 1
 79 428 l 1
 777 428 l 1
EndSplineSet
EndChar

StartChar: greater
Encoding: 62 62 33
Width: 1143
GlyphClass: 2
Flags: HW
HStem: 1401 20G<78 131.102>
LayerCount: 2
Fore
SplineSet
78 789 m 1
 78 1421 l 1
 1071 1047 l 1
 1071 357 l 1
 78 -17 l 1
 78 464 l 1
 622 627 l 1
 78 789 l 1
EndSplineSet
EndChar

StartChar: question
Encoding: 63 63 34
Width: 1383
GlyphClass: 2
Flags: HW
HStem: -1 384<241 881> 1214 362<419.903 662.6>
VStem: 241 640<-1 383 512 637.029> 692 641<1015.57 1186.24>
LayerCount: 2
Fore
SplineSet
1333 1087 m 0xd0
 1333 788.537 1125.57 683.637 881 629 c 1
 881 512 l 1
 244 512 l 2
 243.333 511.333 242.333 511 241 511 c 1
 241 856 l 1xe0
 377.59 915.759 565.94 928.113 663 1023.5 c 0
 682.333 1042.5 692 1063.67 692 1087 c 0
 692 1164.17 640.114 1214 564 1214 c 0
 468.761 1214 398.425 1165.54 352 1104 c 1
 51 1104 l 1
 51 1450 l 1
 208.469 1528.73 398.907 1576 643 1576 c 0
 1021.16 1576 1333 1459.8 1333 1087 c 0xd0
241 383 m 1
 881 383 l 1
 881 -1 l 1
 241 -1 l 1
 241 383 l 1
EndSplineSet
EndChar

StartChar: at
Encoding: 64 64 35
Width: 1851
GlyphClass: 2
Flags: HW
HStem: -40 241<692.33 1363.58> 343 190<1308.1 1478.68> 359 198<692.844 986.594> 1020 185<805.457 1021.38> 1344 232<667.248 1138.77>
VStem: 53 269<529.26 992.454> 471 277<609.431 963.251> 1025 276<574.217 1018.45> 1532 266<589.293 1010.88>
LayerCount: 2
Fore
SplineSet
1492 32 m 1xdf80
 1333.65 -12.5361 1156.44 -40 962 -40 c 0
 516.87 -40 196.809 179.139 88 518 c 0
 64.667 590.667 53 670.334 53 757 c 0
 53 1181.65 330.547 1453.7 664 1546.5 c 0
 734.667 1566.17 808.334 1576 885 1576 c 0
 1327.56 1576 1654.73 1345.82 1765.5 1013.5 c 0
 1787.17 948.5 1798 881 1798 811 c 0
 1798 529.455 1663.02 343 1379 343 c 0xdf80
 1258.6 343 1127.28 388.158 1079 462 c 1
 1000.95 400.211 911.812 359 791 359 c 0xbf80
 594.688 359 471 549.426 471 746 c 0
 471 1034.3 624.675 1205 910 1205 c 0
 1060.52 1205 1190.24 1164.53 1301 1118 c 1
 1301 599 l 2
 1301 553.206 1354.58 533 1403 533 c 0
 1506.57 533 1532 696.426 1532 812 c 0
 1532 1073.28 1337.1 1231.13 1138 1302 c 0
 1059.33 1330 975.332 1344 886 1344 c 0
 553.354 1344 322 1086.74 322 758 c 0
 322 393.344 601.34 201 963 201 c 0
 1156.73 201 1341.53 231.259 1492 281 c 1
 1492 32 l 1xdf80
897 557 m 0xbf80
 947.446 557 985.02 572.958 1025 594 c 1
 1025 1014 l 1
 998.459 1017.62 964.893 1020 936 1020 c 0
 796.73 1020 748 942.279 748 796 c 0
 748 674.925 778.098 557 897 557 c 0xbf80
EndSplineSet
EndChar

StartChar: A
Encoding: 65 65 36
Width: 1817
GlyphClass: 2
Flags: HW
HStem: 0 21G<77 650.109 1166.81 1740> 0 21G<77 650.109 1166.81 1740> 258 343<785 1031> 1180 356<495 1321>
LayerCount: 2
Fore
SplineSet
1171 0 m 1xb0
 1117 258 l 1
 699 258 l 1
 646 0 l 1
 77 0 l 1
 77 504 l 1
 200 529 l 1
 495 1536 l 1
 1321 1536 l 1
 1617 529 l 1
 1740 504 l 1
 1740 0 l 1
 1171 0 l 1xb0
785 601 m 1
 1031 601 l 1
 908 1180 l 1
 785 601 l 1
EndSplineSet
EndChar

StartChar: B
Encoding: 66 66 37
Width: 1844
GlyphClass: 2
Flags: W
HStem: 0 393<843 1108.61> 680 213<843 1108.46> 1180 356<843 1114.23>
VStem: 203 640<459 680 893 1114> 1142 640<427.058 627.193> 1142 538<950.005 1285.98>
LayerCount: 2
Fore
SplineSet
1782 459 m 0xf8
 1782 122.635 1581.55 0 1236 0 c 2
 75 0 l 1
 75 434 l 1
 203 459 l 1
 203 1114 l 1
 75 1139 l 1
 75 1536 l 1
 1367 1536 l 1
 1555.07 1490.77 1680 1394.95 1680 1177 c 0xf4
 1680 965.296 1589.79 786 1389 786 c 1
 1604.24 774.962 1782 687.054 1782 459 c 0xf8
937 893 m 2
 1065.57 893 1142 912.605 1142 1044 c 0
 1142 1167.33 1058.4 1180 937 1180 c 2
 843 1180 l 1
 843 893 l 1
 937 893 l 2
937 393 m 2
 1066.12 393 1142 413.087 1142 545 c 0xf8
 1142 667.741 1057.8 680 937 680 c 2
 843 680 l 1
 843 393 l 1
 937 393 l 2
EndSplineSet
EndChar

StartChar: C
Encoding: 67 67 38
Width: 1621
GlyphClass: 2
Flags: W
HStem: -18 491.533<855.726 1338.02> 1113 446<840.779 1129.35>
VStem: 68 625.629<622.782 971.979>
LayerCount: 2
Fore
SplineSet
1002 1113 m 0
 793.57 1113 693.629 963.329 693.629 807.079 c 0
 693.629 553.756 864.849 473.533 1071.49 473.533 c 0
 1228.77 473.533 1406.56 520.006 1545 572 c 1
 1545 84 l 1
 1355.67 20.499 1162.94 -18 931 -18 c 0
 401.226 -18 68 253.913 68 786 c 0
 68 1316.13 394.245 1559 923 1559 c 0
 1177.67 1559 1376.14 1510.09 1545 1433 c 1
 1545 935 l 1
 1244 935 l 1
 1190.14 1031.67 1114.37 1113 1002 1113 c 0
EndSplineSet
EndChar

StartChar: D
Encoding: 68 68 39
Width: 1876
GlyphClass: 2
Flags: HW
HStem: 0 459<813 1105.55> 1114 422<813 1106.97>
VStem: 173 640<459 1114> 1196 641<547.006 1022.66>
LayerCount: 2
Fore
SplineSet
1837 786 m 0
 1837 187.053 1413.09 0 813 0 c 2
 45 0 l 1
 45 434 l 1
 173 459 l 1
 173 1114 l 1
 45 1139 l 1
 45 1536 l 1
 1210 1536 l 1
 1586.6 1455.48 1837 1241.89 1837 786 c 0
911 459 m 2
 1080.88 459 1180.29 502.535 1191.5 652 c 0
 1194.5 692 1196 736.667 1196 786 c 256
 1196 1020.52 1151.73 1114 911 1114 c 2
 813 1114 l 1
 813 459 l 1
 911 459 l 2
EndSplineSet
EndChar

StartChar: E
Encoding: 69 69 40
Width: 1495
GlyphClass: 2
Flags: HW
HStem: 0 384<846 1093.12> 1152 384<846 1095.49>
LayerCount: 2
Fore
SplineSet
846 384 m 1
 1017.54 384 1149.98 439.283 1248 512 c 1
 1415 512 l 1
 1415 0 l 1
 78 0 l 1
 78 434 l 1
 206 459 l 1
 206 1075 l 1
 78 1100 l 1
 78 1536 l 1
 1415 1536 l 1
 1415 1024 l 1
 1254 1024 l 1
 1151.59 1094.41 1019.73 1152 846 1152 c 1
 846 879 l 1
 1146 944 l 1
 1146 590 l 1
 846 655 l 1
 846 384 l 1
EndSplineSet
EndChar

StartChar: F
Encoding: 70 70 41
Width: 1389
GlyphClass: 2
Flags: HW
HStem: 0 21G<76 972> 0 21G<76 972> 1516 20G<76 1313>
LayerCount: 2
Fore
SplineSet
844 879 m 1xa0
 1116 944 l 1
 1116 590 l 1
 844 655 l 1
 844 459 l 1
 972 430 l 1
 972 0 l 1
 76 0 l 1
 76 434 l 1
 204 459 l 1
 204 1075 l 1
 76 1100 l 1
 76 1536 l 1
 1313 1536 l 1
 1313 1024 l 1
 1145 1024 l 1
 1073.26 1089.76 981.511 1152 844 1152 c 1
 844 879 l 1xa0
EndSplineSet
EndChar

StartChar: G
Encoding: 71 71 42
Width: 1658
GlyphClass: 2
Flags: W
HStem: -18 471<833.713 1150.07> 590 274<964 1156> 1113 446<852.707 1145.28>
VStem: 67 641<589.401 965.36> 1156 430<460.93 590>
LayerCount: 2
Fore
SplineSet
911 -18 m 0
 381.305 -18 67 257.193 67 786 c 0
 67 1300.63 371.369 1559 882 1559 c 0
 1156.19 1559 1364.49 1514.67 1544 1430 c 1
 1544 973 l 1
 1243 973 l 1
 1189.14 1049.04 1113.37 1113 1001 1113 c 0
 821.271 1113 708 969.988 708 786 c 0
 708 569.789 803.114 453 1010 453 c 0
 1062.64 453 1110.5 459.163 1156 469 c 1
 1156 590 l 1
 964 590 l 1
 964 864 l 1
 1586 864 l 1
 1586 134 l 1
 1394.53 54.0205 1175.66 -18 911 -18 c 0
EndSplineSet
EndChar

StartChar: H
Encoding: 72 72 43
Width: 2270
GlyphClass: 2
Flags: W
HStem: 0 434<83 172.457 942.131 1027 1243 1327.87 2097.54 2187> 660 226<879 1391> 1100 436<83 172.457 942.131 1027 1243 1327.87 2097.54 2187>
VStem: 83 944<0 434 1100 1536> 1243 944<0 434 1100 1536>
LayerCount: 2
Fore
SplineSet
83 1536 m 1
 1027 1536 l 5
 1027 1100 l 5
 879 1075 l 1
 879 886 l 1
 1391 886 l 1
 1391 1075 l 1
 1243 1100 l 1
 1243 1536 l 1
 2187 1536 l 1
 2187 1100 l 1
 2031 1075 l 1
 2031 459 l 1
 2187 434 l 1
 2187 0 l 1
 1243 0 l 1
 1243 434 l 1
 1391 459 l 1
 1391 660 l 1
 879 660 l 1
 879 459 l 1
 1027 434 l 5
 1027 0 l 5
 83 0 l 1
 83 434 l 1
 239 459 l 1
 239 1075 l 1
 83 1100 l 1
 83 1536 l 1
EndSplineSet
EndChar

StartChar: I
Encoding: 73 73 44
Width: 1052
GlyphClass: 2
Flags: W
HStem: 0 21G<78 974> 0 21G<78 974> 1516 20G<78 974>
VStem: 78 896<0 434 1102 1536> 206 640<459 1077>
LayerCount: 2
Fore
SplineSet
78 1536 m 1xb0
 974 1536 l 1
 974 1102 l 1xb0
 846 1077 l 1
 846 459 l 1xa8
 974 434 l 1
 974 0 l 1
 78 0 l 1
 78 434 l 1xb0
 206 459 l 1
 206 1077 l 1xa8
 78 1102 l 1
 78 1536 l 1xb0
EndSplineSet
EndChar

StartChar: J
Encoding: 74 74 45
Width: 1492
GlyphClass: 2
Flags: HW
HStem: -18 441<424.021 848.683> 1516 20G<555 1451>
VStem: 683 640<482.169 1077>
LayerCount: 2
Fore
SplineSet
537 423 m 0
 639.019 423 683 532.828 683 640 c 2
 683 1077 l 1
 555 1102 l 1
 555 1536 l 1
 1451 1536 l 1
 1451 1102 l 1
 1323 1077 l 1
 1323 640 l 2
 1323 188.752 1066.54 -18 616 -18 c 0
 379.068 -18 190.283 16.9932 44 99 c 1
 44 563 l 1
 345 563 l 1
 383.114 490.784 444.627 423 537 423 c 0
EndSplineSet
EndChar

StartChar: K
Encoding: 75 75 46
Width: 1994
GlyphClass: 2
Flags: HW
HStem: 0 21G<76 844 1118.17 1919> 0 21G<76 844 1118.17 1919> 1516 20G<76 844 1117.81 1919.08>
VStem: 76 768<0 434 1102 1536>
LayerCount: 2
Fore
SplineSet
1920 1290 m 1xb0
 1734.94 1155.06 1580.73 975.638 1453 786 c 1
 1593.67 591.742 1739.43 383.928 1918 227 c 1
 1919 0 l 1
 1127 0 l 1
 844 641 l 1
 844 0 l 1
 76 0 l 1
 76 434 l 1
 204 459 l 1
 204 1077 l 1
 76 1102 l 1
 76 1536 l 1
 844 1536 l 1
 844 920 l 1
 1127 1536 l 1
 1919 1536 l 1
 1920 1290 l 1xb0
EndSplineSet
EndChar

StartChar: L
Encoding: 76 76 47
Width: 1372
GlyphClass: 2
Flags: HW
HStem: 0 21G<76 1296> 0 21G<76 1296> 1516 20G<76 972>
VStem: 204 640<459 1077>
LayerCount: 2
Fore
SplineSet
844 384 m 1xb0
 973.026 384 1065.4 445.517 1129 512 c 1
 1296 512 l 1
 1296 0 l 1
 76 0 l 1
 76 434 l 1
 204 459 l 1
 204 1077 l 1
 76 1102 l 1
 76 1536 l 1
 972 1536 l 1
 972 1102 l 1
 844 1077 l 1
 844 384 l 1xb0
EndSplineSet
EndChar

StartChar: M
Encoding: 77 77 48
Width: 2332
GlyphClass: 2
Flags: HW
HStem: 0 21G<78 845 1486 2254> 0 21G<78 845 1486 2254> 1516 20G<78 855.915 1475.19 2254>
LayerCount: 2
Fore
SplineSet
845 749 m 1xa0
 845 0 l 1
 78 0 l 1
 78 434 l 1
 206 459 l 1
 206 1077 l 1
 78 1102 l 1
 78 1536 l 1
 845 1536 l 1
 1167 946 l 1
 1486 1536 l 1
 2254 1536 l 1
 2254 1102 l 1
 2126 1077 l 1
 2126 459 l 1
 2254 434 l 1
 2254 0 l 1
 1486 0 l 1
 1486 749 l 1
 1167 197 l 1
 845 749 l 1xa0
EndSplineSet
EndChar

StartChar: N
Encoding: 78 78 49
Width: 2006
GlyphClass: 2
Flags: W
HStem: 0 21G<81 749 1118.36 1773> 0 21G<81 749 1118.36 1773> 1102 434<81 170.457 1261 1328.96 1839.54 1929>
VStem: 237 384<459 749> 1389 384<749 1075>
LayerCount: 2
Fore
SplineSet
621 749 m 1xb8
 621 459 l 1
 749 435 l 1
 749 0 l 1
 81 0 l 1
 81 434 l 1
 237 459 l 1
 237 1077 l 1
 81 1102 l 1
 81 1536 l 1
 877 1536 l 1
 1389 749 l 1
 1389 1075 l 1
 1261 1102 l 1
 1261 1536 l 1
 1929 1536 l 1
 1929 1102 l 1
 1773 1077 l 1
 1773 0 l 1
 1132 0 l 1
 621 749 l 1xb8
EndSplineSet
EndChar

StartChar: O
Encoding: 79 79 50
Width: 1928
GlyphClass: 2
Flags: W
HStem: -18 483<809.369 1116.17> 1102 457<809.404 1116.91>
VStem: 68 640<569.604 997.3> 1220 640<570.061 997.27>
LayerCount: 2
Fore
SplineSet
1860 786 m 0
 1860 234.909 1511.2 -18 963 -18 c 0
 408.325 -18 68 232.078 68 786 c 0
 68 1320.21 429.622 1559 963 1559 c 256
 1496.41 1559 1860 1320.15 1860 786 c 0
1220 786 m 256
 1220 979.607 1158.99 1102 963 1102 c 256
 766.971 1102 708 979.712 708 786 c 256
 708 591.717 766.353 465 963 465 c 256
 1159.62 465 1220 591.795 1220 786 c 256
EndSplineSet
EndChar

StartChar: P
Encoding: 80 80 51
Width: 1783
GlyphClass: 2
Flags: HW
HStem: 0 21G<64 960> 0 21G<64 960> 590 275<832 1021.67> 1237 299<832 1034.4>
VStem: 1088 640<918.267 1179.18>
LayerCount: 2
Fore
SplineSet
1728 1065 m 0xb8
 1728 620.352 1286.16 590 832 590 c 1
 832 459 l 1
 960 434 l 1
 960 0 l 1
 64 0 l 1
 64 434 l 1
 192 459 l 1
 192 1077 l 1
 64 1102 l 1
 64 1536 l 1
 935 1536 l 2
 1364.93 1536 1728 1487.93 1728 1065 c 0xb8
832 865 m 1
 991.026 865 1088 892.726 1088 1053 c 0
 1088 1210.94 989.254 1237 832 1237 c 1
 832 865 l 1
EndSplineSet
EndChar

StartChar: Q
Encoding: 81 81 52
Width: 1928
GlyphClass: 2
Flags: HW
HStem: -459 924<866.445 1120.55> 1102 457<809.511 1116.72>
VStem: 68 640<569.575 997.245> 1220 640<573.957 997.043>
LayerCount: 2
Fore
SplineSet
1317 7 m 1
 1372.85 -62.8086 1442.57 -143.881 1496 -208 c 1
 1496 -459 l 1
 900 -459 l 1
 793.493 -341.475 711.809 -187.378 663 -7 c 1
 298.085 79.3535 68 333.581 68 786 c 0
 68 1319.85 430.549 1559 963 1559 c 256
 1494.74 1559 1860 1318.69 1860 786 c 0
 1860 352.37 1649.77 106.83 1317 7 c 1
1220 786 m 256
 1220 979.607 1158.99 1102 963 1102 c 256
 766.971 1102 708 979.712 708 786 c 256
 708 591.717 766.353 465 963 465 c 256
 1159.62 465 1220 591.795 1220 786 c 256
EndSplineSet
EndChar

StartChar: R
Encoding: 82 82 53
Width: 1807
GlyphClass: 2
Flags: HW
HStem: 0 21G<75 843 1058.26 1738> 0 21G<75 843 1058.26 1738> 1196 340<843 1032.93>
LayerCount: 2
Fore
SplineSet
1434 651 m 1xa0
 1502.27 507.277 1637.83 366.824 1738 251 c 1
 1738 0 l 1
 1102 0 l 1
 1014.51 166.222 925.643 342.549 878 549 c 1
 843 549 l 1
 843 0 l 1
 75 0 l 1
 75 434 l 1
 203 459 l 1
 203 1077 l 1
 75 1102 l 1
 75 1536 l 1
 946 1536 l 2
 1318.7 1536 1675.9 1501.57 1727.5 1189.5 c 0
 1734.5 1147.17 1738 1102.33 1738 1055 c 0
 1738 811.518 1614.22 722.296 1434 651 c 1xa0
843 844 m 1
 997.449 844 1099 863.866 1099 1019 c 0
 1099 1171.91 995.548 1196 843 1196 c 1
 843 844 l 1
EndSplineSet
EndChar

StartChar: S
Encoding: 83 83 54
Width: 1444
GlyphClass: 2
Flags: HW
HStem: -18 372<470.326 723.642> 1183 369<715.872 961.386>
LayerCount: 2
Fore
SplineSet
683 1024 m 1
 1092.2 1009.97 1391 899.744 1391 482 c 0
 1391 100.691 1088.47 -18 702 -18 c 0
 454.211 -18 243.93 7.75781 70 99 c 1
 70 494 l 1
 371 494 l 1
 426.657 416.937 506.99 354 623 354 c 0
 715.789 354 751 404.267 751 502 c 1
 391.209 535.469 57 640.224 57 1033 c 0
 57 1426.02 342.196 1552 736 1552 c 0
 995.769 1552 1187.99 1510.61 1358 1433 c 1
 1358 1043 l 1
 1057 1043 l 1
 1003.14 1119.04 927.368 1183 815 1183 c 0
 721.995 1183 683 1121.97 683 1024 c 1
EndSplineSet
EndChar

StartChar: T
Encoding: 84 84 55
Width: 1564
GlyphClass: 2
Flags: HW
HStem: 0 21G<334 1230> 0 21G<334 1230> 1024 512<78 281.949 1282.08 1486> 1152 384<328.743 462 1102 1235.25>
VStem: 462 640<459 1152>
LayerCount: 2
Fore
SplineSet
462 1152 m 1x98
 356.789 1152 292.559 1084.25 246 1024 c 1
 78 1024 l 1
 78 1536 l 1
 1486 1536 l 1
 1486 1024 l 1
 1318 1024 l 1x28
 1271.57 1084.08 1207.04 1152 1102 1152 c 1
 1102 459 l 1
 1230 434 l 1
 1230 0 l 1
 334 0 l 1
 334 434 l 1
 462 459 l 1
 462 1152 l 1x98
EndSplineSet
EndChar

StartChar: U
Encoding: 85 85 56
Width: 1975
GlyphClass: 2
Flags: HW
HStem: -18 483<875.294 1191.79> 1102 434<75 148.4 832.6 906 1162 1235.4 1826.6 1900>
VStem: 203 575<575.91 1077> 1290 481<569.05 1077>
LayerCount: 2
Fore
SplineSet
1291 811 m 0
 1291 838.033 1290 867.977 1290 897.5 c 2
 1290 1077 l 1
 1162 1102 l 1
 1162 1536 l 1
 1900 1536 l 1
 1900 1102 l 1
 1772 1077 l 1
 1771.33 1055.67 1771 1034.83 1771 1014.5 c 2
 1771 786 l 2
 1771 290.688 1527.96 -18 1041 -18 c 0
 504.968 -18 203 250.434 203 786 c 2
 203 1077 l 1
 75 1102 l 1
 75 1536 l 1
 906 1536 l 1
 906 1102 l 1
 778 1077 l 1
 778 897.5 l 2
 778 867.912 779 838.102 779 811 c 0
 779 794 779 794 779 786 c 0
 779 591.717 837.353 465 1034 465 c 256
 1230.62 465 1291 591.795 1291 786 c 0
 1291 794 1291 794 1291 811 c 0
EndSplineSet
EndChar

StartChar: V
Encoding: 86 86 57
Width: 1987
GlyphClass: 2
Flags: HW
HStem: -1 510<638 1350> 1102 434<77 167.795 945.293 1011 1137 1202.71 1819.8 1910>
LayerCount: 2
Fore
SplineSet
638 -1 m 1
 229 1078 l 1
 77 1102 l 1
 77 1536 l 1
 1011 1536 l 1
 1011 1102 l 1
 901 1078 l 1
 1074 509 l 1
 1247 1078 l 1
 1137 1102 l 1
 1137 1536 l 1
 1910 1536 l 1
 1910 1102 l 1
 1759 1078 l 1
 1350 -1 l 1
 638 -1 l 1
EndSplineSet
EndChar

StartChar: W
Encoding: 87 87 58
Width: 3084
GlyphClass: 2
Flags: HW
HStem: -1 510<638 1350 1735 2447> 1102 434<77 167.795 982.293 1048 1174 1239.71 2079.29 2145 2271 2336.71 2916.8 3007>
LayerCount: 2
Fore
SplineSet
638 -1 m 1
 229 1078 l 1
 77 1102 l 1
 77 1536 l 1
 1048 1536 l 1
 1048 1102 l 1
 938 1078 l 1
 1111 509 l 1
 1284 1078 l 1
 1174 1102 l 1
 1174 1536 l 1
 2145 1536 l 1
 2145 1102 l 1
 2035 1078 l 1
 2208 509 l 1
 2381 1078 l 1
 2271 1102 l 1
 2271 1536 l 1
 3007 1536 l 1
 3007 1102 l 1
 2856 1078 l 1
 2447 -1 l 1
 1735 -1 l 1
 1542 587 l 1
 1350 -1 l 1
 638 -1 l 1
EndSplineSet
EndChar

StartChar: X
Encoding: 88 88 59
Width: 2060
GlyphClass: 2
Flags: HW
HStem: 0 434<86 176.197 745.507 859 985 1050.71 1908.21 1999> 1102 434<65 173.715 977.293 1043 1178 1289.7 1839.88 1948>
LayerCount: 2
Fore
SplineSet
1847 458 m 1
 1999 434 l 1
 1999 0 l 1
 985 0 l 1
 985 434 l 1
 1095 458 l 1
 862 636 l 1
 669 458 l 1
 859 434 l 1
 859 0 l 1
 86 0 l 1
 86 434 l 1
 237 458 l 1
 606 788 l 1
 247 1078 l 1
 65 1102 l 1
 65 1536 l 1
 1043 1536 l 1
 1043 1102 l 1
 933 1078 l 1
 1192 890 l 1
 1365 1078 l 1
 1178 1102 l 1
 1178 1536 l 1
 1948 1536 l 1
 1948 1102 l 1
 1767 1078 l 1
 1468 768 l 1
 1847 458 l 1
EndSplineSet
EndChar

StartChar: Y
Encoding: 89 89 60
Width: 2067
GlyphClass: 2
Flags: HW
HStem: 0 21G<550 1518> 0 21G<550 1518> 1102 434<77 173.768 871.267 931 1137 1196.73 1893.83 1990>
LayerCount: 2
Fore
SplineSet
550 0 m 1xa0
 550 432 l 1
 678 464 l 1
 239 1078 l 1
 77 1102 l 1
 77 1536 l 1
 931 1536 l 1
 931 1102 l 1
 831 1078 l 1
 1034 764 l 1
 1237 1078 l 1
 1137 1102 l 1
 1137 1536 l 1
 1990 1536 l 1
 1990 1102 l 1
 1829 1078 l 1
 1390 464 l 1
 1518 432 l 1
 1518 0 l 1
 550 0 l 1xa0
EndSplineSet
EndChar

StartChar: Z
Encoding: 90 90 61
Width: 1393
GlyphClass: 2
Flags: HW
HStem: 0 399<814.781 1050.16> 1152 384<429.057 634>
DStem2: 70 384 814 402 0.59191 0.806004<454.889 952.848>
LayerCount: 2
Fore
SplineSet
863 399 m 0
 989.751 399 1081.86 452.752 1150 512 c 1
 1318 512 l 1
 1318 0 l 1
 70 0 l 1
 70 384 l 1
 634 1152 l 1
 485.095 1152 376.692 1092.28 296 1024 c 1
 128 1024 l 1
 128 1536 l 1
 1318 1536 l 1
 1318 1122 l 1
 814 402 l 1
 830.667 400 847 399 863 399 c 0
EndSplineSet
EndChar

StartChar: bracketleft
Encoding: 91 91 62
Width: 1170
GlyphClass: 2
Flags: HW
HStem: 0 316<721 1027.64> 1219 317<721 1031.14>
VStem: 81 640<316 1219>
LayerCount: 2
Fore
SplineSet
721 316 m 1
 868.43 316 1000.63 348.878 1106 384 c 1
 1106 0 l 1
 81 0 l 1
 81 1536 l 1
 1106 1536 l 1
 1106 1151 l 1
 995.512 1187.83 869.005 1219 721 1219 c 1
 721 316 l 1
EndSplineSet
EndChar

StartChar: backslash
Encoding: 92 92 63
Width: 1095
GlyphClass: 2
Flags: HW
HStem: 0 21G<415 1060> 0 21G<415 1060> 1516 20G<36 681>
VStem: 36 640<896 1536> 420 640<0 640>
DStem2: 676 1536 36 1536 0.242536 -0.970142<0 1428.05>
LayerCount: 2
Fore
SplineSet
1060 0 m 1xa8
 420 0 l 1xa8
 36 1536 l 1
 676 1536 l 1xb0
 1060 0 l 1xa8
EndSplineSet
EndChar

StartChar: bracketright
Encoding: 93 93 64
Width: 1171
GlyphClass: 2
Flags: HW
HStem: 0 316<142.415 449> 1219 317<142.458 449>
VStem: 449 640<316 1219>
LayerCount: 2
Fore
SplineSet
449 1219 m 1
 300.508 1219 169.932 1186.31 64 1151 c 1
 64 1536 l 1
 1089 1536 l 1
 1089 0 l 1
 64 0 l 1
 64 384 l 1
 169.784 348.738 300.646 316 449 316 c 1
 449 1219 l 1
EndSplineSet
EndChar

StartChar: asciicircum
Encoding: 94 94 65
Width: 1492
GlyphClass: 2
Flags: HW
HStem: 841 439<452 1042>
LayerCount: 2
Fore
SplineSet
43 201 m 1
 452 1280 l 1
 1042 1280 l 1
 1451 201 l 1
 939 201 l 1
 747 841 l 1
 555 201 l 1
 43 201 l 1
EndSplineSet
EndChar

StartChar: underscore
Encoding: 95 95 66
Width: 841
GlyphClass: 2
Flags: HW
HStem: -32 256<72 770>
LayerCount: 2
Fore
SplineSet
770 224 m 1
 770 -32 l 1
 72 -32 l 1
 72 224 l 1
 770 224 l 1
EndSplineSet
EndChar

StartChar: grave
Encoding: 96 96 67
Width: 996
GlyphClass: 2
Flags: HW
HStem: 1664 640<487 573>
LayerCount: 2
Fore
SplineSet
83 2304 m 1
 573 2304 l 1
 912 1664 l 1
 487 1664 l 1
 83 2304 l 1
EndSplineSet
EndChar

StartChar: a
Encoding: 97 97 68
Width: 1671
GlyphClass: 2
Flags: HW
HStem: 0 21G<50 589.219 1073.78 1613> 0 21G<50 589.219 1073.78 1613> 237 316<696 967> 1388 20G<436.985 1225.06> 1388 20G<436.985 1225.06>
LayerCount: 2
Fore
SplineSet
1078 0 m 1xb0
 1028 237 l 1
 635 237 l 1
 585 0 l 1
 50 0 l 1
 50 464 l 1
 166 487 l 1
 443 1408 l 1
 1219 1408 l 1
 1498 487 l 1
 1613 464 l 1
 1613 0 l 1
 1078 0 l 1xb0
696 553 m 1
 967 553 l 1
 831 1106 l 1
 696 553 l 1
EndSplineSet
EndChar

StartChar: b
Encoding: 98 98 69
Width: 1708
GlyphClass: 2
Flags: HW
HStem: 0 342<786 1036.19> 626 196<786 1036.17> 1106 302<786 1039.47>
VStem: 184 602<422 626 822 1025> 1067 602<376.271 579.235> 1067 506<867.62 1183.04>
LayerCount: 2
Fore
SplineSet
1669 422 m 0xf8
 1669 109.387 1476.59 0 1155 0 c 2
 64 0 l 1
 64 399 l 1
 184 422 l 1
 184 1025 l 1
 64 1048 l 1
 64 1408 l 1
 1278 1408 l 1
 1452.22 1366.8 1573 1283.09 1573 1083 c 0xf4
 1573 890.367 1490.8 737.034 1319.5 724.5 c 0
 1299 723 1299 723 1299 723 c 1
 1499.14 711.869 1669 634.712 1669 422 c 0xf8
874 822 m 2
 997.73 822 1067 843.17 1067 970 c 0
 1067 1090.23 992.189 1106 874 1106 c 2
 786 1106 l 1
 786 822 l 1
 874 822 l 2
874 342 m 2
 997.796 342 1067 364.257 1067 491 c 0xf8
 1067 610.688 991.613 626 874 626 c 2
 786 626 l 1
 786 342 l 1
 874 342 l 2
EndSplineSet
EndChar

StartChar: c
Encoding: 99 99 70
Width: 1497
GlyphClass: 2
Flags: HW
HStem: -18 437<768.257 1243.19> 73 435<987 1422> 1024 422<765.869 1051.69>
VStem: 34 603<541.998 895.317>
LayerCount: 2
Fore
SplineSet
912 1024 m 0xb0
 744.315 1024 637 894.46 637 723 c 0
 637 515.626 744.423 419 948 419 c 0xb0
 1116.88 419 1265.35 460.69 1422 508 c 1
 1422 73 l 1x70
 1222 12.333 1029.67 -18 845 -18 c 0
 348.393 -18 34 225.47 34 723 c 0
 34 1221 340.862 1446 838 1446 c 0
 1076.24 1446 1263.7 1401.49 1422 1330 c 1
 1422 895 l 1
 1139 895 l 1
 1087.8 965.394 1017.8 1024 912 1024 c 0xb0
EndSplineSet
EndChar

StartChar: d
Encoding: 100 100 71
Width: 1779
GlyphClass: 2
Flags: HW
HStem: 0 422<786 1058.65> 1025 383<786 1064.75>
VStem: 184 602<422 1025> 1146 602<504.665 941.464>
LayerCount: 2
Fore
SplineSet
1748 723 m 0
 1748 166.445 1343.59 0 786 0 c 2
 64 0 l 1
 64 399 l 1
 184 422 l 1
 184 1025 l 1
 64 1048 l 1
 64 1408 l 1
 1159 1408 l 1
 1508.65 1333.44 1748 1145.71 1748 723 c 0
878 422 m 2
 1097.81 422 1146 501.304 1146 723 c 256
 1146 940.373 1098.66 1025 878 1025 c 2
 786 1025 l 1
 786 422 l 1
 878 422 l 2
EndSplineSet
EndChar

StartChar: e
Encoding: 101 101 72
Width: 1378
GlyphClass: 2
Flags: HW
HStem: 0 399<66 140.797 788 1037.28> 1012 396<66 140.797 788 1024.95>
VStem: 186 602<422 623 789 989>
LayerCount: 2
Fore
SplineSet
788 402 m 1
 943.96 402 1077.8 442.844 1165 512 c 1
 1302 512 l 1
 1302 0 l 1
 66 0 l 1
 66 399 l 1
 186 422 l 1
 186 989 l 1
 66 1012 l 1
 66 1408 l 1
 1302 1408 l 1
 1302 896 l 1
 1165 896 l 1
 1076.36 963.242 943.099 1006 788 1006 c 1
 788 789 l 1
 1065 848 l 1
 1065 563 l 1
 788 623 l 1
 788 402 l 1
EndSplineSet
EndChar

StartChar: f
Encoding: 102 102 73
Width: 1291
GlyphClass: 2
Flags: HW
HStem: 0 21G<66 908> 0 21G<66 908> 1012 396<66 140.797 788 960.974>
LayerCount: 2
Fore
SplineSet
788 759 m 1xa0
 1044 818 l 1
 1044 513 l 1
 788 573 l 1
 788 422 l 1
 908 396 l 1
 908 0 l 1
 66 0 l 1
 66 399 l 1
 186 422 l 1
 186 989 l 1
 66 1012 l 1
 66 1408 l 1
 1229 1408 l 1
 1229 896 l 1
 1062 896 l 1
 1004.34 956.334 907.36 1006 788 1006 c 1
 788 759 l 1xa0
EndSplineSet
EndChar

StartChar: g
Encoding: 103 103 74
Width: 1525
GlyphClass: 2
Flags: HW
HStem: -18 417<750.706 1073.04> 537 246<877 1078> 1024 422<760.194 1059.49>
VStem: 34 603<508.245 901.348> 1078 384<410.862 537>
LayerCount: 2
Fore
SplineSet
827 -18 m 0
 335.273 -18 34 229.382 34 723 c 0
 34 1221.1 340.54 1446 838 1446 c 0
 1076.24 1446 1263.7 1401.49 1422 1330 c 1
 1422 895 l 1
 1139 895 l 1
 1087.64 968.684 1035.38 1024 912 1024 c 0
 731.409 1024 637 908.483 637 723 c 0
 637 505.922 706.812 399 920 399 c 0
 980.07 399 1026.53 406.992 1078 423 c 1
 1078 537 l 1
 877 537 l 1
 877 783 l 1
 1462 783 l 1
 1462 119 l 1
 1281.43 43.3535 1079.15 -18 827 -18 c 0
EndSplineSet
EndChar

StartChar: h
Encoding: 104 104 75
Width: 2061
GlyphClass: 2
Flags: HW
HStem: 0 399<66 140.797 833.203 908 1149 1223.8 1916.2 1991> 589 235<788 1269> 1012 396<66 140.797 833.203 908 1149 1223.8 1916.2 1991>
VStem: 66 842<0 399 1012 1408> 1149 842<0 399 1012 1413>
LayerCount: 2
Fore
SplineSet
66 1408 m 1
 908 1408 l 1
 908 1012 l 1
 788 989 l 1
 788 824 l 1
 1269 824 l 1
 1269 989 l 1
 1149 1012 l 1
 1149 1413 l 1
 1991 1413 l 1
 1991 1012 l 1
 1871 989 l 1
 1871 422 l 1
 1991 399 l 1
 1991 0 l 1
 1149 0 l 1
 1149 399 l 1
 1269 422 l 1
 1269 589 l 1
 788 589 l 1
 788 422 l 1
 908 399 l 1
 908 0 l 1
 66 0 l 1
 66 399 l 1
 186 422 l 1
 186 989 l 1
 66 1012 l 1
 66 1408 l 1
EndSplineSet
EndChar

StartChar: i
Encoding: 105 105 76
Width: 978
GlyphClass: 2
Flags: HW
HStem: 0 21G<66 908> 0 21G<66 908> 1388 20G<66 908> 1388 20G<66 908>
VStem: 66 842<0 399 1014 1408> 186 602<422 991>
LayerCount: 2
Fore
SplineSet
66 1408 m 1xa8
 908 1408 l 1
 908 1014 l 1xa8
 788 991 l 1
 788 422 l 1xa4
 908 399 l 1
 908 0 l 1
 66 0 l 1
 66 399 l 1xa8
 186 422 l 1
 186 991 l 1xa4
 66 1014 l 1
 66 1408 l 1xa8
EndSplineSet
EndChar

StartChar: j
Encoding: 106 106 77
Width: 1430
GlyphClass: 2
Flags: HW
HStem: -18 407<399.938 808.281> 1388 20G<531 1374> 1388 20G<531 1374>
VStem: 652 601<441.535 991>
LayerCount: 2
Fore
SplineSet
514 389 m 0xd0
 608.538 389 652 489.662 652 589 c 2
 652 991 l 1
 531 1014 l 1
 531 1408 l 1
 1374 1408 l 1
 1374 1014 l 1
 1253 991 l 1
 1253 589 l 2
 1253 166.225 1012.12 -18 589 -18 c 0
 358.198 -18 195.38 12.8594 51 87 c 1
 51 518 l 1
 334 518 l 1
 370.246 451.55 427.752 389 514 389 c 0xd0
EndSplineSet
EndChar

StartChar: k
Encoding: 107 107 78
Width: 1783
GlyphClass: 2
Flags: HW
HStem: 0 21G<66 788 1044.98 1729> 0 21G<66 788 1044.98 1729> 1388 20G<66 788 1044.53 1702> 1388 20G<66 788 1044.53 1702>
VStem: 66 722<0 399 1014 1408>
LayerCount: 2
Fore
SplineSet
1350 725 m 1xa8
 1463.75 544.175 1584.92 356.087 1729 204 c 1
 1729 0 l 1
 1054 0 l 1
 788 590 l 1
 788 0 l 1
 66 0 l 1
 66 399 l 1
 186 422 l 1
 186 991 l 1
 66 1014 l 1
 66 1408 l 1
 788 1408 l 1
 788 846 l 1
 1054 1408 l 1
 1702 1408 l 1
 1702 1154 l 1
 1562.02 1035.37 1446.64 882.839 1350 725 c 1xa8
EndSplineSet
EndChar

StartChar: l
Encoding: 108 108 79
Width: 1269
GlyphClass: 2
Flags: HW
HStem: 0 21G<66 1210> 0 21G<66 1210> 1388 20G<66 908> 1388 20G<66 908>
VStem: 186 601<422 991>
LayerCount: 2
Fore
SplineSet
787 384 m 1xa8
 904.421 384 987.647 448.345 1043 512 c 1
 1210 512 l 1
 1210 0 l 1
 66 0 l 1
 66 399 l 1
 186 422 l 1
 186 991 l 1
 66 1014 l 1
 66 1408 l 1
 908 1408 l 1
 908 1014 l 1
 787 991 l 1
 787 384 l 1xa8
EndSplineSet
EndChar

StartChar: m
Encoding: 109 109 80
Width: 2181
GlyphClass: 2
Flags: HW
HStem: 0 21G<66 787 1390 2111> 0 21G<66 787 1390 2111> 1388 20G<66 798.264 1378.85 2111> 1388 20G<66 798.264 1378.85 2111>
LayerCount: 2
Fore
SplineSet
787 689 m 1xa0
 787 0 l 1
 66 0 l 1
 66 399 l 1
 186 422 l 1
 186 991 l 1
 66 1014 l 1
 66 1408 l 1
 787 1408 l 1
 1090 870 l 1
 1390 1408 l 1
 2111 1408 l 1
 2111 1014 l 1
 1991 991 l 1
 1991 422 l 1
 2111 399 l 1
 2111 0 l 1
 1390 0 l 1
 1390 689 l 1
 1090 181 l 1
 787 689 l 1xa0
EndSplineSet
EndChar

StartChar: n
Encoding: 110 110 81
Width: 1820
GlyphClass: 2
Flags: HW
HStem: 0 399<66 140.797 592.58 668 1675.2 1750> 1014 394<66 140.797 1149 1217.81 1675.2 1750>
VStem: 66 602<0 399> 186 361<422 739> 1149 601<1014 1408> 1269 361<649 989>
LayerCount: 2
Fore
SplineSet
547 739 m 1xd8
 547 422 l 1xd8
 668 400 l 1
 668 0 l 1
 66 0 l 1
 66 399 l 1xe0
 186 422 l 1
 186 991 l 1xd0
 66 1014 l 1
 66 1408 l 1
 788 1408 l 1
 1269 649 l 1
 1269 989 l 1xe4
 1149 1014 l 1
 1149 1408 l 1
 1750 1408 l 1
 1750 1014 l 1xc8
 1630 991 l 1
 1630 422 l 1xc4
 1750 399 l 1
 1750 0 l 1
 1028 0 l 1
 547 739 l 1xd8
EndSplineSet
EndChar

StartChar: o
Encoding: 111 111 82
Width: 1749
GlyphClass: 2
Flags: W
HStem: -18 436<730.876 1021.93> 1020 426<728.939 1019.68>
VStem: 34 602<518.345 925.271> 1117 601<517.421 924.267>
LayerCount: 2
Fore
SplineSet
1718 723 m 0
 1718 208.391 1392.4 -18 875 -18 c 0
 362.617 -18 34 209.346 34 723 c 0
 34 1225.88 374.845 1446 875 1446 c 0
 1374.71 1446 1718 1225.54 1718 723 c 0
1117 723 m 0
 1117 905.658 1059.85 1020 875 1020 c 0
 692.542 1020 636 908.561 636 728 c 0
 636 541.684 686.321 418 875 418 c 0
 1060.81 418 1117 539.662 1117 723 c 0
EndSplineSet
EndChar

StartChar: p
Encoding: 112 112 83
Width: 1667
GlyphClass: 2
Flags: HW
HStem: 0 21G<66 908> 0 21G<66 908> 543 253<788 964.796> 1168 240<788 977.074>
VStem: 1029 601<852.856 1114.78>
LayerCount: 2
Fore
SplineSet
1630 980 m 0xb8
 1630 567.344 1210.15 543 788 543 c 1
 788 422 l 1
 908 399 l 1
 908 0 l 1
 66 0 l 1
 66 399 l 1
 186 422 l 1
 186 991 l 1
 66 1014 l 1
 66 1408 l 1
 885 1408 l 2
 1282.33 1408 1630 1370.79 1630 980 c 0xb8
788 796 m 1
 945.321 796 1029 829.951 1029 989 c 0
 1029 1141.08 939.276 1168 788 1168 c 1
 788 796 l 1
EndSplineSet
EndChar

StartChar: q
Encoding: 113 113 84
Width: 1749
GlyphClass: 2
Flags: HW
HStem: 1020 426<719.296 1032.83>
VStem: 34 602<517.433 926.556> 1117 601<515.149 923.255>
LayerCount: 2
Fore
SplineSet
1221 10 m 1
 1269.42 -49.9453 1332.46 -122.33 1380 -176 c 1
 1380 -407 l 1
 907 -407 l 1
 782.775 -305.075 662.434 -177.394 603 -9 c 1
 257.275 68.4424 34 298.96 34 723 c 0
 34 1225.88 374.845 1446 875 1446 c 0
 1374.71 1446 1718 1225.54 1718 723 c 0
 1718 327.372 1522.81 103.287 1221 10 c 1
885 1020 m 0
 878.333 1020 871.667 1020 865 1020 c 0
 688.184 1020 636 902.464 636 728 c 256
 636 541.684 686.321 418 875 418 c 0
 1060.81 418 1117 539.662 1117 723 c 256
 1117 900.559 1064.62 1020 885 1020 c 0
EndSplineSet
EndChar

StartChar: r
Encoding: 114 114 85
Width: 1691
GlyphClass: 2
Flags: HW
HStem: 0 21G<66 788 990.022 1629> 0 21G<66 788 990.022 1629> 1140 268<788 965.833>
VStem: 66 722<0 399 1014 1140>
LayerCount: 2
Fore
SplineSet
1343 599 m 1xb0
 1408.99 467.012 1534.73 337.838 1629 231 c 1
 1629 0 l 1
 1031 0 l 1
 949.045 152.202 865.8 315.206 821 505 c 1
 788 505 l 1
 788 0 l 1
 66 0 l 1
 66 399 l 1
 186 422 l 1
 186 991 l 1
 66 1014 l 1
 66 1408 l 1
 885 1408 l 2
 1231.07 1408 1569.39 1381.75 1619 1094 c 0
 1625.67 1055.33 1629 1014.33 1629 971 c 0
 1629 745.319 1511.69 663.729 1343 599 c 1xb0
788 776 m 1
 940.521 776 1029 803.251 1029 957 c 0
 1029 1109.71 939.965 1140 788 1140 c 1
 788 776 l 1
EndSplineSet
EndChar

StartChar: s
Encoding: 115 115 86
Width: 1336
GlyphClass: 2
Flags: HW
HStem: -18 324<440.22 666.391> 1118 328<662.353 866.956>
LayerCount: 2
Fore
SplineSet
629 932 m 1
 1004.91 918.33 1295 827.049 1295 443 c 0
 1295 81.252 1012.33 -18 647 -18 c 0
 407.339 -18 234.377 11.3115 83 87 c 1
 83 434 l 1
 366 434 l 1
 410.205 364.535 475.033 306 573 306 c 0
 668.251 306 693 370.594 693 472 c 1
 361.15 500.679 41 590.514 41 950 c 0
 41 1321.42 309.709 1446 679 1446 c 0
 912.141 1446 1090.54 1401 1244 1330 c 1
 1244 980 l 1
 941 980 l 1
 902.803 1052.37 846.038 1118 754 1118 c 0
 657.161 1118 629 1035.52 629 932 c 1
EndSplineSet
EndChar

StartChar: t
Encoding: 116 116 87
Width: 1485
GlyphClass: 2
Flags: HW
HStem: 0 21G<319 1161> 0 21G<319 1161> 896 512<58 225 1255 1422> 1036 372<283.957 439 1041 1199.25>
VStem: 58 167<896 980.429> 439 602<422 1036> 1255 167<896 980.892>
CounterMasks: 1 0e
LayerCount: 2
Fore
SplineSet
439 1036 m 1x9e
 340.917 1036 225 987.322 225 896 c 1
 58 896 l 1
 58 1408 l 1
 1422 1408 l 1
 1422 896 l 1
 1255 896 l 1x2e
 1255 988.377 1137.89 1036 1041 1036 c 1
 1041 422 l 1
 1161 399 l 1
 1161 0 l 1
 319 0 l 1
 319 399 l 1
 439 422 l 1
 439 1036 l 1x9e
EndSplineSet
EndChar

StartChar: u
Encoding: 117 117 88
Width: 1824
GlyphClass: 2
Flags: HW
HStem: -18 446<799.111 1099.84> 1014 394<51 125.797 757.203 832 1073 1147.8 1691.58 1767>
VStem: 171 541<527.769 991> 1193 452<517.892 991>
LayerCount: 2
Fore
SplineSet
1194 745.5 m 0
 1194 770.226 1193 798.455 1193 825.5 c 2
 1193 991 l 1
 1073 1014 l 1
 1073 1408 l 1
 1767 1408 l 1
 1767 1014 l 1
 1646 991 l 1
 1645.33 971 1645 951.5 1645 932.5 c 2
 1645 723 l 2
 1645 254.062 1414.03 -18 952 -18 c 0
 456.663 -18 171 224.254 171 723 c 2
 171 991 l 1
 51 1014 l 1
 51 1408 l 1
 832 1408 l 1
 832 1014 l 1
 712 991 l 1
 712 823.5 l 2
 712 795.551 713 766.836 713 741.5 c 0
 713 726 713 726 713 721 c 0
 713 541.288 770.164 428 952 428 c 256
 1135.2 428 1194 542.371 1194 723 c 0
 1194 730 1194 730 1194 745.5 c 0
EndSplineSet
EndChar

StartChar: v
Encoding: 118 118 89
Width: 1834
GlyphClass: 2
Flags: HW
HStem: -1 21G<561.467 1266.53> -1 21G<561.467 1266.53> 1014 394<52 145.184 862.881 930 1048 1115.77 1682.47 1775>
LayerCount: 2
Fore
SplineSet
569 -1 m 1xa0
 195 992 l 1
 52 1014 l 1
 52 1408 l 1
 930 1408 l 1
 930 1014 l 1
 827 992 l 1
 989 448 l 1
 1152 992 l 1
 1048 1014 l 1
 1048 1408 l 1
 1775 1408 l 1
 1775 1014 l 1
 1633 992 l 1
 1259 -1 l 1
 569 -1 l 1xa0
EndSplineSet
EndChar

StartChar: w
Encoding: 119 119 90
Width: 2865
GlyphClass: 2
Flags: HW
HStem: -1 469<579 1249> -1 21G<1604.27 2287.73> 1014 394<52 145.184 897.23 965 1083 1150.77 1928.88 1996 2114 2181.77 2713.47 2806>
LayerCount: 2
Fore
SplineSet
579 -1 m 1xa0
 195 992 l 1
 52 1014 l 1
 52 1408 l 1
 965 1408 l 1
 965 1014 l 1
 861 992 l 1
 1024 468 l 1
 1187 992 l 1
 1083 1014 l 1
 1083 1408 l 1
 1996 1408 l 1
 1996 1014 l 1
 1893 992 l 1
 2055 468 l 1xa0
 2218 992 l 1
 2114 1014 l 1
 2114 1413 l 1
 2806 1413 l 1
 2806 1014 l 1
 2664 992 l 1
 2280 -1 l 1
 1611 -1 l 1x60
 1429 540 l 1
 1249 -1 l 1
 579 -1 l 1xa0
EndSplineSet
EndChar

StartChar: x
Encoding: 120 120 91
Width: 1935
GlyphClass: 2
Flags: W
HStem: 0 399<80 172.532 690.009 806 925 992.119 1784.82 1878> 1014 394<60 171.43 917.881 985 1103 1219.64 1719.22 1830>
LayerCount: 2
Fore
SplineSet
1735 421 m 1
 1878 399 l 1
 1878 0 l 1
 925 0 l 1
 925 399 l 1
 1028 421 l 1
 809 585 l 1
 628 421 l 1
 806 399 l 1
 806 0 l 1
 80 0 l 1
 80 399 l 1
 222 421 l 1
 569 725 l 1
 231 992 l 1
 60 1014 l 1
 60 1408 l 1
 985 1408 l 1
 985 1014 l 1
 882 992 l 1
 1119 819 l 1
 1282 992 l 1
 1103 1014 l 1
 1103 1408 l 1
 1830 1408 l 1
 1830 1014 l 1
 1660 992 l 1
 1379 707 l 1
 1735 421 l 1
EndSplineSet
EndChar

StartChar: y
Encoding: 121 121 92
Width: 1911
GlyphClass: 2
Flags: HW
HStem: 0 21G<499 1409> 0 21G<499 1409> 1014 394<54 153.049 795.746 857 1050 1111.25 1753.6 1852>
LayerCount: 2
Fore
SplineSet
499 0 m 1xa0
 499 397 l 1
 619 427 l 1
 206 992 l 1
 54 1014 l 1
 54 1408 l 1
 857 1408 l 1
 857 1014 l 1
 763 992 l 1
 954 703 l 1
 1144 992 l 1
 1050 1014 l 1
 1050 1408 l 1
 1852 1408 l 1
 1852 1014 l 1
 1701 992 l 1
 1288 427 l 1
 1409 397 l 1
 1409 0 l 1
 499 0 l 1xa0
EndSplineSet
EndChar

StartChar: z
Encoding: 122 122 93
Width: 1261
GlyphClass: 2
Flags: HW
HStem: 0 365<728.688 947.176> 1055 353<365.282 563>
DStem2: 46 352 728 368 0.592456 0.805603<416.945 872.639>
LayerCount: 2
Fore
SplineSet
772 365 m 0
 887.878 365 972.298 415.255 1035 469 c 1
 1189 469 l 1
 1189 0 l 1
 46 0 l 1
 46 352 l 1
 563 1055 l 1
 426.797 1055 325.688 1001.6 253 938 c 1
 99 938 l 1
 99 1408 l 1
 1189 1408 l 1
 1189 1028 l 1
 728 368 l 1
 742.67 366 757.336 365 772 365 c 0
EndSplineSet
EndChar

StartChar: braceleft
Encoding: 123 123 94
Width: 1013
GlyphClass: 2
Flags: HW
HStem: -41 372<806.595 954.133> 1348 372<812.763 954.139>
LayerCount: 2
Fore
SplineSet
958 -21 m 1
 875.48 -34.1553 794.119 -41 705 -41 c 0
 401.996 -41 385.308 198.073 321 434.5 c 0
 286.472 561.443 216.097 655 53 655 c 1
 53 1024 l 1
 503.311 1024 183.251 1720 705 1720 c 0
 793.964 1720 875.618 1713.13 958 1700 c 1
 958 1348 l 1
 755.903 1348 740.902 1209.48 722.5 1027.5 c 0
 712.676 930.351 677.023 860.557 589 839 c 1
 835.902 778.536 585 331 958 331 c 1
 958 -21 l 1
EndSplineSet
EndChar

StartChar: bar
Encoding: 124 124 95
Width: 671
GlyphClass: 2
Flags: HW
VStem: 78 513<-128 1664>
LayerCount: 2
Fore
SplineSet
78 1664 m 1
 591 1664 l 1
 591 -128 l 1
 78 -128 l 1
 78 1664 l 1
EndSplineSet
EndChar

StartChar: braceright
Encoding: 125 125 96
Width: 1012
GlyphClass: 2
Flags: HW
HStem: -41 372<56.8612 203.233> 1348 372<56.8673 203.483>
VStem: 422 536<387 1292>
LayerCount: 2
Fore
SplineSet
53 1700 m 1
 135.52 1713.16 216.881 1720 306 1720 c 0
 653.208 1720 609.58 1416.21 715.5 1174.5 c 0
 755.249 1083.79 826.562 1024 958 1024 c 1
 958 655 l 1
 510.783 655 818.457 -41 306 -41 c 0
 217.036 -41 135.382 -34.1338 53 -21 c 1
 53 331 l 1
 257.421 331 267.498 467.973 288 650.5 c 0
 298.873 747.272 333.5 817.326 422 839 c 1
 176.744 899.062 423.139 1348 53 1348 c 1
 53 1700 l 1
EndSplineSet
EndChar

StartChar: asciitilde
Encoding: 126 126 97
Width: 1015
GlyphClass: 2
Flags: HW
HStem: 661 377<550.924 854.017> 757 396<155.781 454.278>
LayerCount: 2
Fore
SplineSet
292 1153 m 0x40
 440.391 1153 526.466 1038 677 1038 c 0
 800.697 1038 878.317 1087.62 956 1159 c 1
 896 742 l 1
 860.604 692.224 810.211 661 735 661 c 0x80
 587.036 661 492.438 757 343 757 c 0
 221.036 757 139.809 715.631 60 652 c 1
 122 1078 l 1
 163.636 1125.26 213.185 1153 292 1153 c 0x40
EndSplineSet
EndChar

StartChar: exclamdown
Encoding: 161 161 98
Width: 867
GlyphClass: 2
Flags: HW
HStem: 0 21G<108.742 816> 0 21G<108.742 816> 1152 384<112 752>
LayerCount: 2
Fore
SplineSet
112 1536 m 1x20
 752 1536 l 1
 752 1152 l 1
 112 1152 l 1
 112 1536 l 1x20
176 1024 m 1
 688 1024 l 1
 816 399 l 1
 816 0 l 1
 112 0 l 1xa0
 47 399 l 1
 176 1024 l 1
EndSplineSet
EndChar

StartChar: cent
Encoding: 162 162 99
Width: 1505
GlyphClass: 2
Flags: HW
HStem: -258 677<776.135 1049.05> -25 444<1050 1279.68> 1024 640<778.383 1047.73>
VStem: 50 603<542.965 894.127> 665 385<-258 -21 1434.35 1664>
LayerCount: 2
Fore
SplineSet
964 419 m 0xb8
 1130.94 419 1285.72 460.74 1438 508 c 1
 1438 65 l 1
 1306 21 1176.67 -9 1050 -25 c 1x78
 1050 -258 l 1
 665 -258 l 1
 665 -21 l 1
 292.717 42.4258 50 286.542 50 723 c 0
 50 1159.59 282.337 1383.1 665 1437 c 1
 665 1664 l 1
 1050 1664 l 1
 1050 1438 l 1
 1198.87 1419.89 1331.45 1389.25 1438 1334 c 1
 1438 895 l 1
 1155 895 l 1
 1103.8 965.394 1033.8 1024 928 1024 c 0
 760.315 1024 653 894.46 653 723 c 0
 653 515.626 760.423 419 964 419 c 0xb8
EndSplineSet
EndChar

StartChar: sterling
Encoding: 163 163 100
Width: 1418
GlyphClass: 2
Flags: HW
HStem: 0 344<708 1003.18> 606 226<70 209 768 1094> 1113 463<755.059 993.151>
VStem: 77 636<951.463 1286.09>
LayerCount: 2
Fore
SplineSet
708 344 m 1
 900.342 344 1065.62 397.011 1183 472 c 1
 1350 472 l 1
 1350 0 l 1
 70 0 l 1
 70 434 l 1
 107.882 493.529 162.861 551.473 209 606 c 1
 70 606 l 1
 70 832 l 1
 217 832 l 1
 123.667 949.333 77 1060 77 1164 c 0
 77 1499.6 489.171 1576 839 1576 c 0
 1052.09 1576 1220.08 1527.95 1350 1450 c 1
 1350 973 l 1
 1050 973 l 1
 1029.73 1058.58 965.578 1113 862 1113 c 0
 786.324 1113 713 1055.55 713 980 c 0
 713 920.753 741.486 872.131 770 832 c 1
 1094 832 l 1
 1094 606 l 1
 768 606 l 1
 708 344 l 1
EndSplineSet
EndChar

StartChar: currency
Encoding: 164 164 101
Width: 1256
GlyphClass: 2
Flags: HW
HStem: 446 272<491.427 766.272> 1188 281<492.091 766.809> 1528 20G<201 240.862 1015 1055>
VStem: 118 291<805.089 1101.71> 851 291<803.933 1102.83>
DStem2: 221 1548 40 1367 0.707107 -0.707107<0 216.246 1195.54 1407.14> 40 553 221 372 0.707107 0.707107<0 215.445 1193.9 1407.14>
LayerCount: 2
Fore
SplineSet
1075 1226 m 1
 1116.22 1156.44 1142 1068.76 1142 960 c 0
 1142 849.34 1116.43 763.754 1076 692 c 1
 1216 553 l 1
 1035 372 l 1
 894 513 l 1
 821.437 472.555 733.591 446 628 446 c 0
 524.082 446 433.913 473.816 363 514 c 1
 221 372 l 1
 40 553 l 1
 182 695 l 1
 143.244 764.761 118 853.16 118 960 c 256
 118 1066.88 143.223 1154.2 182 1224 c 1
 40 1367 l 1
 221 1548 l 1
 365 1403 l 1
 436.41 1442.28 524.352 1469 628 1469 c 256
 730.97 1469 819.479 1442.14 891 1404 c 1
 1035 1548 l 1
 1216 1367 l 1
 1075 1226 l 1
629 718 m 0
 764.815 718 851 815.129 851 954 c 0
 851 1091.87 762.867 1188 628 1188 c 0
 494.318 1188 409 1090.76 409 954 c 0
 409 815.422 493.508 718 629 718 c 0
EndSplineSet
EndChar

StartChar: yen
Encoding: 165 165 102
Width: 2021
GlyphClass: 2
Flags: HW
HStem: 0 21G<654 1366> 0 21G<654 1366> 128 256<242 654 1366 1778> 512 256<242 456 1563 1778> 1102 434<53 149.768 847.267 907 1113 1172.73 1869.83 1966>
LayerCount: 2
Fore
SplineSet
242 768 m 1xb8
 456 768 l 1
 215 1078 l 1
 53 1102 l 1
 53 1536 l 1
 907 1536 l 1
 907 1102 l 1
 807 1078 l 1
 1010 768 l 1
 1213 1078 l 1
 1113 1102 l 1
 1113 1536 l 1
 1966 1536 l 1
 1966 1102 l 1
 1805 1078 l 1
 1563 768 l 1
 1778 768 l 1
 1778 512 l 1
 1366 512 l 1
 1366 384 l 1
 1778 384 l 1
 1778 128 l 1
 1366 128 l 1
 1366 0 l 1
 654 0 l 1
 654 128 l 1
 242 128 l 1
 242 384 l 1
 654 384 l 1
 654 512 l 1
 242 512 l 1
 242 768 l 1xb8
EndSplineSet
EndChar

StartChar: brokenbar
Encoding: 166 166 103
Width: 670
GlyphClass: 2
Flags: HW
VStem: 78 513<-128 704 896 1664>
LayerCount: 2
Fore
SplineSet
78 1664 m 1
 591 1664 l 1
 591 896 l 1
 78 896 l 1
 78 1664 l 1
78 704 m 1
 591 704 l 1
 591 -128 l 1
 78 -128 l 1
 78 704 l 1
EndSplineSet
EndChar

StartChar: section
Encoding: 167 167 104
Width: 1133
GlyphClass: 2
Flags: HW
HStem: -41 266<374.937 574.585> 1310 266<558.464 758.145>
VStem: 63 354<692.631 828.824> 723 347<688.815 968.872>
LayerCount: 2
Fore
SplineSet
598 375 m 1
 323.057 383.332 63 431.559 63 707 c 0
 63 825.727 100.335 902.335 160 962 c 1
 104.128 1009.18 63 1075.7 63 1175 c 0
 63 1476.3 277.951 1576 575 1576 c 0
 765.211 1576 919.813 1543.21 1044 1483 c 1
 1044 1199 l 1
 818 1199 l 1
 777.912 1259.13 721.609 1310 635 1310 c 0
 557.111 1310 535 1243.3 535 1160 c 1
 809.848 1149.59 1070 1105.61 1070 828 c 256
 1070 709.342 1031.61 631.611 972 572 c 1
 1027.85 524.838 1070 459.262 1070 360 c 0
 1070 59.0684 857.22 -41 558 -41 c 0
 368.948 -41 211.683 -9.34082 89 52 c 1
 89 336 l 1
 315 336 l 1
 355.088 275.869 411.391 225 498 225 c 0
 575.889 225 598 291.703 598 375 c 1
622 660 m 1
 673.707 673.937 723 713.285 723 776 c 0
 723 831.25 643.392 847.738 582 853 c 2
 512 859 l 1
 466.821 843.94 417 800.793 417 743 c 0
 417 687.552 505.381 676.566 568 667 c 1
 622 660 l 1
EndSplineSet
EndChar

StartChar: dieresis
Encoding: 168 168 105
Width: 1346
GlyphClass: 2
Flags: HW
HStem: 1664 384<89 514 833 1258>
VStem: 89 425<1664 2048> 833 425<1664 2048>
LayerCount: 2
Fore
SplineSet
833 2048 m 1
 1258 2048 l 1
 1258 1664 l 1
 833 1664 l 1
 833 2048 l 1
514 2048 m 1
 514 1664 l 1
 89 1664 l 1
 89 2048 l 1
 514 2048 l 1
EndSplineSet
EndChar

StartChar: copyright
Encoding: 169 169 106
Width: 1722
GlyphClass: 2
Flags: HW
HStem: -41 146<624.097 1106.39> 318 270<804.433 1169.23> 378 263<956 1219> 870 261<1089.94 1219> 947 253<805.31 1020.98> 1429 146<615.065 1097.62>
VStem: 53 146<521.125 1003.77> 395 358<637.456 895.961> 1523 146<530.028 1012.91>
LayerCount: 2
Fore
SplineSet
53 767 m 256x8780
 53 1183.97 319.504 1454.07 646 1546 c 0
 714.667 1565.33 786.334 1575 861 1575 c 0
 1277.15 1575 1548.24 1307.92 1640 982 c 0
 1659.33 913.333 1669 841.667 1669 767 c 256
 1669 350.038 1401.46 79.916 1075 -12 c 0
 1006.33 -31.333 935 -41 861 -41 c 0
 444.419 -41 173.825 225.861 82 552 c 0
 62.667 620.667 53 692.334 53 767 c 256x8780
199 767 m 256
 199 425.601 416.562 203.016 684.5 128.5 c 0
 740.833 112.833 799.667 105 861 105 c 0
 1202.4 105 1424.98 322.562 1499.5 590.5 c 0
 1515.17 646.833 1523 705.667 1523 767 c 0
 1523 1108.49 1305.37 1331.3 1037 1405.5 c 0
 980.333 1421.17 921.667 1429 861 1429 c 256
 519.513 1429 296.696 1211.37 222.5 943 c 0
 206.833 886.333 199 827.667 199 767 c 256
916 947 m 0x8f80
 817.191 947 753 869.943 753 769 c 0
 753 643.707 813.979 588 937 588 c 0xcf80
 1033.87 588 1130.56 613.949 1219 641 c 1
 1219 378 l 1xa780
 1116.21 344.128 1002.72 318 877 318 c 0
 582.627 318 395 472.838 395 769 c 0
 395 1065.03 576.507 1200 872 1200 c 0xcf80
 1013.33 1200 1125.57 1173.82 1219 1131 c 1
 1219 870 l 1
 1051 870 l 1x9780
 1021.22 912.549 978.813 947 916 947 c 0x8f80
EndSplineSet
EndChar

StartChar: ordfeminine
Encoding: 170 170 107
Width: 1283
GlyphClass: 2
Flags: HW
HStem: 1310 225<587.302 763.714>
VStem: 56 469<863.521 1232.71> 766 442<544 640 796 1309.25>
LayerCount: 2
Fore
SplineSet
627 1535 m 0
 835.913 1535 1033.37 1487.46 1208 1430 c 1
 1208 544 l 1
 766 544 l 1
 766 640 l 1
 675.855 571.648 582.532 512 457 512 c 0
 203.204 512 56 730.743 56 980 c 0
 56 1341.25 268.091 1535 627 1535 c 0
697 1310 m 0
 556.465 1310 525 1196.31 525 1039 c 0
 525 857.949 587.653 796 766 796 c 1
 766 1303 l 1
 746.667 1307.67 723.667 1310 697 1310 c 0
EndSplineSet
EndChar

StartChar: guillemotleft
Encoding: 171 171 108
Width: 1779
GlyphClass: 2
Flags: HW
HStem: 1401 20G<766.802 806 1660.8 1700>
LayerCount: 2
Fore
SplineSet
1366 627 m 1
 1700 464 l 1
 1700 -17 l 1
 967 357 l 1
 967 1047 l 1
 1700 1421 l 1
 1700 789 l 1
 1366 627 l 1
472 627 m 1
 806 464 l 1
 806 -17 l 1
 73 357 l 1
 73 1047 l 1
 806 1421 l 1
 806 789 l 1
 472 627 l 1
EndSplineSet
EndChar

StartChar: logicalnot
Encoding: 172 172 109
Width: 917
GlyphClass: 2
Flags: HW
HStem: 512 384<71 583>
VStem: 583 256<256 512>
LayerCount: 2
Fore
SplineSet
71 896 m 1
 839 896 l 1
 839 256 l 1
 583 256 l 1
 583 512 l 1
 71 512 l 1
 71 896 l 1
EndSplineSet
EndChar

StartChar: registered
Encoding: 174 174 111
Width: 1722
GlyphClass: 2
Flags: HW
HStem: -41 146<624.097 1106.39> 1028 186<851 974.947> 1429 146<615.065 1097.62>
VStem: 53 146<521.125 1003.77> 429 422<371 609 976 1028> 991 351<371 462.088 847.53 1011.89> 1523 146<530.028 1012.91>
LayerCount: 2
Fore
SplineSet
53 767 m 256
 53 1183.97 319.504 1454.07 646 1546 c 0
 714.667 1565.33 786.334 1575 861 1575 c 0
 1277.15 1575 1548.24 1307.92 1640 982 c 0
 1659.33 913.333 1669 841.667 1669 767 c 256
 1669 350.038 1401.46 79.916 1075 -12 c 0
 1006.33 -31.333 935 -41 861 -41 c 0
 444.419 -41 173.825 225.861 82 552 c 0
 62.667 620.667 53 692.334 53 767 c 256
199 767 m 256
 199 425.601 416.562 203.016 684.5 128.5 c 0
 740.833 112.833 799.667 105 861 105 c 0
 1202.4 105 1424.98 322.562 1499.5 590.5 c 0
 1515.17 646.833 1523 705.667 1523 767 c 0
 1523 1108.49 1305.37 1331.3 1037 1405.5 c 0
 980.333 1421.17 921.667 1429 861 1429 c 256
 519.513 1429 296.696 1211.37 222.5 943 c 0
 206.833 886.333 199 827.667 199 767 c 256
1175 729 m 1
 1211.45 648.803 1287.06 572.096 1342 508 c 1
 1342 371 l 1
 993 371 l 1
 948.193 457.898 894.762 563.801 869 672 c 1
 851 672 l 1
 851 371 l 1
 429 371 l 1
 429 609 l 1
 500 623 l 1
 500 962 l 1
 429 976 l 1
 429 1214 l 1
 907 1214 l 2
 1154.61 1214 1342 1185.84 1342 950 c 0
 1342 816.676 1274.79 766.92 1175 729 c 1
851 834 m 1
 935.426 834 991 845.051 991 930 c 0
 991 1013.38 934.436 1028 851 1028 c 1
 851 834 l 1
EndSplineSet
EndChar

StartChar: macron
Encoding: 175 175 112
Width: 633
GlyphClass: 2
Flags: HW
HStem: 1536 216<60 572>
VStem: 60 512<1536 1752>
LayerCount: 2
Fore
SplineSet
572 1752 m 1
 572 1536 l 1
 60 1536 l 1
 60 1752 l 1
 572 1752 l 1
EndSplineSet
EndChar

StartChar: degree
Encoding: 176 176 113
Width: 917
GlyphClass: 2
Flags: W
HStem: 800 188<342.168 572.991> 1380 196<342.278 572.198>
VStem: 56 229<1047.01 1322.11> 631 229<1046.91 1317.44>
LayerCount: 2
Fore
SplineSet
457 1576 m 256
 691.846 1576 860 1428.12 860 1190 c 0
 860 949.794 693.619 800 457 800 c 0
 221.689 800 56 950.905 56 1190 c 0
 56 1427.74 222.324 1576 457 1576 c 256
458 988 m 256
 567.135 988 631 1073.03 631 1185 c 0
 631 1296.05 565.254 1380 457 1380 c 0
 348.555 1380 285 1296.27 285 1185 c 0
 285 1072.41 348.139 988 458 988 c 256
EndSplineSet
EndChar

StartChar: plusminus
Encoding: 177 177 114
Width: 1143
GlyphClass: 2
Flags: HW
HStem: 0 256<184 952> 768 256<59 443 699 1083> 1388 20G<443 699> 1388 20G<443 699>
VStem: 443 256<384 768 1024 1408>
LayerCount: 2
Fore
SplineSet
59 1024 m 1xe8
 443 1024 l 1
 443 1408 l 1
 699 1408 l 1
 699 1024 l 1
 1083 1024 l 1
 1083 768 l 1
 699 768 l 1
 699 384 l 1
 443 384 l 1
 443 768 l 1
 59 768 l 1
 59 1024 l 1xe8
184 256 m 1
 952 256 l 1
 952 0 l 1
 184 0 l 1
 184 256 l 1
EndSplineSet
EndChar

StartChar: twosuperior
Encoding: 178 178 115
Width: 1015
GlyphClass: 2
Flags: HW
HStem: 512 290<557 940> 1263 313<314.638 494.203>
VStem: 514 432<1047.63 1242.64>
LayerCount: 2
Fore
SplineSet
946 1203 m 0
 946 966.604 745.95 850.537 557 802 c 1
 940 802 l 1
 940 512 l 1
 75 512 l 1
 75 860 l 1
 223.247 913.908 403.119 951.185 487.5 1069 c 0
 505.167 1093.67 514 1121 514 1151 c 0
 514 1222.55 470.733 1263 400 1263 c 0
 343.23 1263 301.686 1213.38 279 1169 c 1
 75 1169 l 1
 75 1491 l 1
 172.53 1545.62 298.111 1576 455 1576 c 0
 730.02 1576 946 1475.87 946 1203 c 0
EndSplineSet
EndChar

StartChar: threesuperior
Encoding: 179 179 116
Width: 1097
GlyphClass: 2
Flags: HW
HStem: 469 274<326.422 575.904> 920 203<332 587.655> 1300 276<326.87 576.111>
VStem: 595 439<768.595 910.164 1132.41 1274.53>
LayerCount: 2
Fore
SplineSet
275 839 m 1
 316.391 783.449 375.67 743 461 743 c 0
 530.167 743 595 774.43 595 841 c 0
 595 889.116 558.118 920 509 920 c 2
 332 920 l 1
 332 1123 l 1
 509 1123 l 2
 558.123 1123 595 1153.9 595 1202 c 0
 595 1268.57 530.155 1300 461 1300 c 0
 377.075 1300 316.341 1257.3 275 1204 c 1
 69 1204 l 1
 69 1489 l 1
 197.074 1543.35 351.178 1576 540 1576 c 0
 797.331 1576 1034 1473.85 1034 1227 c 0
 1034 1118.46 983.016 1050.46 907 1021 c 1
 980.545 987.904 1034 924.945 1034 816 c 0
 1034 570.501 794.07 469 540 469 c 0
 353.761 469 191.36 494.793 69 554 c 1
 69 839 l 1
 275 839 l 1
EndSplineSet
EndChar

StartChar: acute
Encoding: 180 180 117
Width: 996
GlyphClass: 2
Flags: HW
HStem: 1664 640<424 510>
LayerCount: 2
Fore
SplineSet
510 1664 m 1
 85 1664 l 1
 424 2304 l 1
 914 2304 l 1
 510 1664 l 1
EndSplineSet
EndChar

StartChar: paragraph
Encoding: 182 182 118
Width: 1653
GlyphClass: 2
Flags: W
HStem: 0 21G<449 953 1081 1585> 0 21G<449 953 1081 1585> 1388 20G<570.951 1585> 1388 20G<570.951 1585>
VStem: 449 504<0 399> 1081 504<0 399> 1081 384<422 896>
LayerCount: 2
Fore
SplineSet
56 980 m 0xaa
 56 1364.4 375.902 1408 766 1408 c 2
 1585 1408 l 1
 1585 1014 l 1xac
 1465 991 l 1
 1465 422 l 1xaa
 1585 399 l 1
 1585 0 l 1
 1081 0 l 1xac
 1081 896 l 1
 953 896 l 1
 953 0 l 1
 449 0 l 1
 449 399 l 1
 569 422 l 1
 569 543 l 1
 226.437 543 56 637.426 56 980 c 0xaa
EndSplineSet
EndChar

StartChar: cedilla
Encoding: 184 184 120
Width: 724
GlyphClass: 2
Flags: HW
HStem: -769 196<75.2578 387.812> -725 190<72 262>
VStem: 72 221<-129 128> 411 260<-546.402 -336.836>
LayerCount: 2
Fore
SplineSet
275 -573 m 0xb0
 364.472 -573 411 -532.694 411 -442 c 0
 411 -367.9 364.21 -311 292 -311 c 0
 246.604 -311 215.231 -337.214 194 -368 c 1
 72 -368 l 1
 72 128 l 1
 293 128 l 1
 293 -129 l 1
 304 -129 l 2
 310.67 -129 317.333 -128 324 -128 c 1
 312.67 -117.748 307.604 -110.751 307.604 -106.691 c 0
 307.604 -103.771 310.225 -102.371 315.021 -102.371 c 0
 366.705 -102.371 671 -265 671 -442 c 0
 671 -657.302 534.172 -769 320 -769 c 0xb0
 228.99 -769 145.958 -750.423 72 -725 c 1
 72 -535 l 1x70
 136.845 -554.557 205.35 -573 275 -573 c 0xb0
EndSplineSet
EndChar

StartChar: onesuperior
Encoding: 185 185 121
Width: 727
GlyphClass: 2
Flags: HW
HStem: 512 289<72 143.68 596.477 669> 1516 20G<386.462 583>
VStem: 157 426<818 1195>
LayerCount: 2
Fore
SplineSet
72 1484 m 1
 583 1536 l 1
 583 818 l 1
 669 801 l 1
 669 512 l 1
 72 512 l 1
 72 801 l 1
 157 818 l 1
 157 1195 l 1
 72 1195 l 1
 72 1484 l 1
EndSplineSet
EndChar

StartChar: ordmasculine
Encoding: 186 186 122
Width: 1353
GlyphClass: 2
Flags: HW
HStem: 479 343<553.938 798.295> 1254 321<553.617 798.694>
VStem: 56 443<875.008 1200.7> 854 443<875 1200.73>
LayerCount: 2
Fore
SplineSet
1297 1039 m 0
 1297 659.629 1052.39 479 676 479 c 0
 299.104 479 56 659.132 56 1039 c 0
 56 1411.06 306.19 1575 676 1575 c 256
 1045.49 1575 1297 1410.6 1297 1039 c 0
854 1039 m 0
 854 1172.4 811.23 1254 676 1254 c 256
 541.41 1254 499 1171.79 499 1039 c 0
 499 908.165 540.135 822 676 822 c 256
 812.295 822 854 907.646 854 1039 c 0
EndSplineSet
EndChar

StartChar: guillemotright
Encoding: 187 187 123
Width: 1776
GlyphClass: 2
Flags: HW
HStem: 1401 20G<78 117.198 972 1011.2>
LayerCount: 2
Fore
SplineSet
972 789 m 1
 972 1421 l 1
 1705 1047 l 1
 1705 357 l 1
 972 -17 l 1
 972 464 l 1
 1306 627 l 1
 972 789 l 1
78 789 m 1
 78 1421 l 1
 811 1047 l 1
 811 357 l 1
 78 -17 l 1
 78 464 l 1
 412 627 l 1
 78 789 l 1
EndSplineSet
EndChar

StartChar: onequarter
Encoding: 188 188 124
Width: 2668
GlyphClass: 2
Flags: HW
HStem: 0 293<1888 1961.37 2420.63 2494> 400 173<1791 1975 2407 2623> 512 289<66 137.68 590.477 663> 1516 20G<380.462 577 1005 1650>
VStem: 151 426<818 1195> 626 640<0 640> 1010 640<896 1536> 1975 432<310 400 573 789>
DStem2: 626 0 1266 0 0.242536 0.970142<155.223 1583.27> 1542 573 1791 573 0.682262 0.731108<169.883 453.339>
LayerCount: 2
Fore
SplineSet
1010 1536 m 1x9b
 1650 1536 l 1x9b
 1266 0 l 1
 626 0 l 1x9d
 1010 1536 l 1x9b
66 1484 m 1
 577 1536 l 1
 577 818 l 1
 663 801 l 1
 663 512 l 1
 66 512 l 1
 66 801 l 1xb9
 151 818 l 1
 151 1195 l 1
 66 1195 l 1
 66 1484 l 1
1542 573 m 1xd9
 1975 1037 l 1
 2407 1064 l 1
 2407 573 l 1
 2623 573 l 1
 2623 400 l 1
 2407 400 l 1
 2407 310 l 1
 2494 293 l 1
 2494 0 l 1
 1888 0 l 1
 1888 293 l 1
 1975 310 l 1
 1975 400 l 1
 1542 400 l 1
 1542 573 l 1xd9
1791 573 m 1
 1975 573 l 1
 1975 789 l 1
 1791 573 l 1
EndSplineSet
EndChar

StartChar: onehalf
Encoding: 189 189 125
Width: 2548
GlyphClass: 2
Flags: HW
HStem: -1 290<2098 2481> 512 289<66 137.68 590.477 663> 750 313<1855.64 2035.2> 1516 20G<380.462 577 1005 1650>
VStem: 151 426<818 1195> 626 640<0 640> 1010 640<896 1536> 2055 432<534.635 729.64>
DStem2: 626 0 1266 0 0.242536 0.970142<155.223 1583.27>
LayerCount: 2
Fore
SplineSet
1010 1536 m 1x9b
 1650 1536 l 1x9b
 1266 0 l 1
 626 0 l 1x9d
 1010 1536 l 1x9b
66 1484 m 1
 577 1536 l 1
 577 818 l 1
 663 801 l 1
 663 512 l 1
 66 512 l 1
 66 801 l 1xd9
 151 818 l 1
 151 1195 l 1
 66 1195 l 1
 66 1484 l 1
2487 690 m 0
 2487 453.607 2286.94 337.534 2098 289 c 1
 2481 289 l 1
 2481 -1 l 1
 1616 -1 l 1
 1616 347 l 1
 1764.25 400.908 1944.12 438.185 2028.5 556 c 0
 2046.17 580.667 2055 608 2055 638 c 0
 2055 709.539 2011.73 750 1941 750 c 0
 1884.23 750 1842.69 700.384 1820 656 c 1
 1616 656 l 1
 1616 978 l 1
 1713.53 1032.62 1839.11 1063 1996 1063 c 0xb9
 2271.02 1063 2487 962.877 2487 690 c 0
EndSplineSet
EndChar

StartChar: threequarters
Encoding: 190 190 126
Width: 3020
GlyphClass: 2
Flags: HW
HStem: 0 293<2240 2313.37 2772.63 2846> 400 173<2143 2327 2759 2975> 469 274<322.422 571.904> 920 203<328 583.655> 1300 276<322.87 572.111> 1516 20G<1357 2002>
VStem: 591 439<768.595 910.164 1132.41 1274.53> 978 640<0 640> 1362 640<896 1536> 2327 432<310 400 573 789>
DStem2: 978 0 1618 0 0.242536 0.970142<155.223 1583.27> 1894 573 2143 573 0.682262 0.731108<169.883 453.339>
LayerCount: 2
Fore
SplineSet
271 839 m 1xba40
 312.391 783.449 371.67 743 457 743 c 0
 526.167 743 591 774.43 591 841 c 0
 591 889.116 554.118 920 505 920 c 2
 328 920 l 1
 328 1123 l 1
 505 1123 l 2
 554.123 1123 591 1153.9 591 1202 c 0
 591 1268.57 526.155 1300 457 1300 c 0
 373.075 1300 312.341 1257.3 271 1204 c 1
 65 1204 l 1
 65 1489 l 1
 193.074 1543.35 347.178 1576 536 1576 c 0
 793.331 1576 1030 1473.85 1030 1227 c 0
 1030 1118.46 979.019 1050.46 903 1021 c 1
 976.548 987.903 1030 924.946 1030 816 c 0
 1030 570.501 790.07 469 536 469 c 0
 349.761 469 187.36 494.793 65 554 c 1
 65 839 l 1
 271 839 l 1xba40
1362 1536 m 1x94c0
 2002 1536 l 1x94c0
 1618 0 l 1
 978 0 l 1x9540
 1362 1536 l 1x94c0
1894 573 m 1xd040
 2327 1037 l 1
 2759 1064 l 1
 2759 573 l 1
 2975 573 l 1
 2975 400 l 1
 2759 400 l 1
 2759 310 l 1
 2846 293 l 1
 2846 0 l 1
 2240 0 l 1
 2240 293 l 1
 2327 310 l 1
 2327 400 l 1
 1894 400 l 1
 1894 573 l 1xd040
2143 573 m 1
 2327 573 l 1
 2327 789 l 1
 2143 573 l 1
EndSplineSet
EndChar

StartChar: questiondown
Encoding: 191 191 127
Width: 1382
GlyphClass: 2
Flags: HW
HStem: -40 362<721.345 963.785> 1153 384<503 1143>
VStem: 51 641<349.622 520.233> 503 640<898.971 1024 1153 1537>
LayerCount: 2
Fore
SplineSet
1143 1153 m 1xd0
 503 1153 l 1
 503 1537 l 1
 1143 1537 l 1
 1143 1153 l 1xd0
51 449 m 0xe0
 51 747.463 258.435 852.363 503 907 c 1
 503 1024 l 1
 1140 1024 l 2
 1140.67 1024.67 1141.67 1025 1143 1025 c 1
 1143 680 l 1xd0
 1006.48 620.273 817.229 608.22 721 512 c 0
 701.667 492.667 692 471.667 692 449 c 0
 692 371.774 743.685 322 820 322 c 0
 915.239 322 985.575 370.46 1032 432 c 1
 1333 432 l 1
 1333 86 l 1
 1181.99 5.91895 980.535 -40 741 -40 c 0
 361.845 -40 51 75.0391 51 449 c 0xe0
EndSplineSet
EndChar

StartChar: AE
Encoding: 198 198 134
Width: 2383
GlyphClass: 2
Flags: HW
HStem: 0 384<1721 1979.11> 258 343<911 1142> 1152 384<1721 1981.72>
LayerCount: 2
Fore
SplineSet
1721 384 m 1xa0
 1899.23 384 2038.43 439.12 2143 512 c 1
 2310 512 l 1
 2310 0 l 1
 1121 0 l 1xa0
 1142 258 l 1
 724 258 l 1x60
 596 0 l 1
 27 0 l 1
 174 504 l 1
 304 529 l 1
 895 1536 l 1
 2310 1536 l 1
 2310 1024 l 1
 2149 1024 l 1
 2042.08 1095.28 1899.67 1152 1721 1152 c 1
 1721 879 l 1
 2021 944 l 1
 2021 590 l 1
 1721 655 l 1
 1721 384 l 1xa0
911 601 m 1x60
 1157 601 l 1
 1203 1180 l 1
 911 601 l 1x60
EndSplineSet
EndChar

StartChar: Eth
Encoding: 208 208 144
Width: 1896
GlyphClass: 2
Flags: HW
HStem: 0 459<840 1132.55> 640 256<76 200 840 972> 1114 422<840 1133.97>
VStem: 1223 641<547.006 1022.66>
LayerCount: 2
Fore
SplineSet
1864 786 m 0
 1864 187.053 1440.09 0 840 0 c 2
 72 0 l 1
 72 434 l 1
 200 459 l 1
 200 640 l 1
 76 640 l 1
 76 896 l 1
 200 896 l 1
 200 1114 l 1
 72 1139 l 1
 72 1536 l 1
 1237 1536 l 1
 1613.6 1455.48 1864 1241.89 1864 786 c 0
938 459 m 2
 1107.88 459 1207.29 502.535 1218.5 652 c 0
 1221.5 692 1223 736.667 1223 786 c 256
 1223 1020.52 1178.73 1114 938 1114 c 2
 840 1114 l 1
 840 896 l 1
 972 896 l 1
 972 640 l 1
 840 640 l 1
 840 459 l 1
 938 459 l 2
EndSplineSet
EndChar

StartChar: multiply
Encoding: 215 215 151
Width: 967
GlyphClass: 2
Flags: HW
HStem: 587 362<306 668>
VStem: 306 362<587 949>
DStem2: 215 1221 34 1040 0.707107 -0.707107<0 384.666 640.639 1025.3> 34 496 215 315 0.707107 0.707107<0 384.666 640.639 1025.3>
LayerCount: 2
Fore
SplineSet
34 496 m 1
 306 768 l 1
 34 1040 l 1
 215 1221 l 1
 487 949 l 1
 759 1221 l 1
 940 1040 l 1
 668 768 l 1
 940 496 l 1
 759 315 l 1
 487 587 l 1
 215 315 l 1
 34 496 l 1
EndSplineSet
EndChar

StartChar: Oslash
Encoding: 216 216 152
Width: 1859
GlyphClass: 2
Flags: HW
HStem: -40 505<908.992 1079.23> 1102 474<775.44 981.231>
VStem: 35 640<566.549 999.142> 1187 640<568.9 980.346>
DStem2: 391 -128 583 -208 0.431728 0.902004<10.7315 190.978 763.912 1331.1 1895.13 2060.95>
LayerCount: 2
Fore
SplineSet
1827 786 m 0
 1827 231.249 1480.06 -40 930 -40 c 0
 840 -40 754.667 -32 674 -16 c 1
 583 -208 l 1
 391 -128 l 1
 474 44 l 1
 203.318 161.569 35 397.319 35 786 c 0
 35 1329.1 388.275 1576 930 1576 c 0
 1028.98 1576 1118.21 1568.08 1201 1551 c 1
 1287 1728 l 1
 1479 1664 l 1
 1396 1492 l 1
 1658.27 1381.14 1827 1159.09 1827 786 c 0
983 1098 m 1
 967.531 1100.81 948.843 1102 930 1102 c 0
 733.971 1102 675 979.712 675 786 c 0
 675 693.843 685.686 615.971 723 560 c 1
 983 1098 l 1
930 465 m 0
 1126.62 465 1187 591.795 1187 786 c 0
 1187 862.379 1177.57 929.765 1153 983 c 1
 905 466 l 1
 909 465.333 913 465 917 465 c 0
 923 465 923 465 930 465 c 0
EndSplineSet
EndChar

StartChar: Thorn
Encoding: 222 222 158
Width: 1771
GlyphClass: 2
Flags: HW
HStem: 0 21G<62 958> 0 21G<62 958> 543 275<830 1014.66> 1190 299<830 1020.26>
VStem: 190 640<459 543 818 1158> 1086 640<875.802 1137.11>
LayerCount: 2
Fore
SplineSet
1726 1005 m 0xbc
 1726 579.943 1268.05 543 830 543 c 1
 830 459 l 1
 958 434 l 1
 958 0 l 1
 62 0 l 1
 62 434 l 1
 190 459 l 1
 190 1158 l 1
 62 1183 l 1
 62 1664 l 1
 830 1664 l 1
 830 1489 l 1
 933 1489 l 2
 1307.53 1489 1660.73 1465.25 1714.5 1152 c 0
 1722.17 1107.33 1726 1058.33 1726 1005 c 0xbc
830 818 m 1
 989.026 818 1086 845.726 1086 1006 c 0
 1086 1163.94 987.254 1190 830 1190 c 1
 830 818 l 1
EndSplineSet
EndChar

StartChar: germandbls
Encoding: 223 223 159
Width: 1791
GlyphClass: 2
Flags: HW
HStem: 0 21G<48 816 944 1381.78> 0 21G<48 816 944 1381.78> 680 215<944 1096.68> 1190 346<851.725 1104.29>
VStem: 176 640<459 1153> 1137 618<426.103 627.468> 1137 474<964.997 1285.38>
LayerCount: 2
Fore
SplineSet
1755 459 m 0xbc
 1755 122.635 1554.55 0 1209 0 c 2
 944 0 l 1
 944 385 l 1
 1060.09 385 1137 421.674 1137 533 c 0xbc
 1137 643.851 1059.83 680 944 680 c 1
 944 895 l 1
 1062.19 895 1137 932.571 1137 1046 c 0
 1137 1152.5 1073.37 1190 963 1190 c 0
 874.782 1190 816 1133.75 816 1044 c 2
 816 0 l 1
 48 0 l 1
 48 434 l 1
 176 459 l 1
 176 1177 l 2
 176 1394.65 305.358 1490.87 493 1536 c 1
 1099 1536 l 2
 1378.09 1536 1611 1414.99 1611 1147 c 0xba
 1611 964.025 1497.91 837.551 1362 786 c 1
 1577.24 774.962 1755 687.054 1755 459 c 0xbc
EndSplineSet
EndChar

StartChar: ae
Encoding: 230 230 166
Width: 2342
GlyphClass: 2
Flags: HW
HStem: 0 402<1712 1978.85> 237 316<837 1074> 1006 402<1712 1972.24>
LayerCount: 2
Fore
SplineSet
1712 402 m 1xa0
 1871.52 402 2008.51 442.632 2099 512 c 1
 2266 512 l 1
 2266 0 l 1
 1052 0 l 1xa0
 1074 237 l 1
 681 237 l 1x60
 559 0 l 1
 27 0 l 1
 164 464 l 1
 286 487 l 1
 842 1408 l 1
 2266 1408 l 1
 2266 896 l 1
 2099 896 l 1
 2007.08 963.41 1870.67 1006 1712 1006 c 1
 1712 789 l 1
 1989 848 l 1
 1989 563 l 1
 1712 623 l 1
 1712 402 l 1xa0
837 553 m 1x60
 1138 553 l 1
 1138 1106 l 1
 837 553 l 1x60
EndSplineSet
EndChar

StartChar: eth
Encoding: 240 240 176
Width: 1789
GlyphClass: 2
Flags: HW
HStem: 0 422<796 1068.65> 592 256<77 194 796 973> 1025 383<796 1074.75>
VStem: 1156 602<504.665 941.464>
LayerCount: 2
Fore
SplineSet
1758 723 m 0
 1758 166.445 1353.59 0 796 0 c 2
 74 0 l 1
 74 399 l 1
 194 422 l 1
 194 592 l 1
 77 592 l 1
 77 848 l 1
 194 848 l 1
 194 1025 l 1
 74 1048 l 1
 74 1408 l 1
 1169 1408 l 1
 1518.65 1333.44 1758 1145.71 1758 723 c 0
888 422 m 2
 1107.81 422 1156 501.304 1156 723 c 256
 1156 940.373 1108.66 1025 888 1025 c 2
 796 1025 l 1
 796 848 l 1
 973 848 l 1
 973 592 l 1
 796 592 l 1
 796 422 l 1
 888 422 l 2
EndSplineSet
EndChar

StartChar: divide
Encoding: 247 247 183
Width: 833
GlyphClass: 2
Flags: HW
HStem: 0 384<225 609> 512 256<33 801> 896 384<225 609>
VStem: 225 384<0 384 896 1280>
CounterMasks: 1 e0
LayerCount: 2
Fore
SplineSet
225 1280 m 1
 609 1280 l 1
 609 896 l 1
 225 896 l 1
 225 1280 l 1
33 768 m 1
 801 768 l 1
 801 512 l 1
 33 512 l 1
 33 768 l 1
225 384 m 1
 609 384 l 1
 609 0 l 1
 225 0 l 1
 225 384 l 1
EndSplineSet
EndChar

StartChar: oslash
Encoding: 248 248 184
Width: 1749
GlyphClass: 2
Flags: HW
HStem: -37 465<854.947 1014.45> 1014 436<728.92 906.392>
VStem: 34 602<533.053 923.27> 1117 601<522.26 905.026>
DStem2: 358 -128 550 -208 0.430576 0.902554<10.4663 189.644 726.805 1246.78 1765.2 1917.85>
LayerCount: 2
Fore
SplineSet
1718 723 m 0
 1718 208.292 1388.48 -37 875 -37 c 0
 788.374 -37 715.81 -30.125 641 -17 c 1
 550 -208 l 1
 358 -128 l 1
 440 43 l 1
 190.92 151.296 34 365.454 34 723 c 0
 34 1227.83 372.965 1450 875 1450 c 0
 959.318 1450 1035.9 1444.11 1108 1431 c 1
 1190 1600 l 1
 1382 1536 l 1
 1305 1376 l 1
 1553.3 1274.54 1718 1072.32 1718 723 c 0
907 1012 m 1
 896.783 1013.27 886.176 1014 875 1014 c 0
 693.443 1014 636 904.385 636 725 c 0
 636 647.438 643.938 576.82 673 527 c 1
 907 1012 l 1
875 428 m 2
 1058.2 428 1117 542.371 1117 723 c 0
 1117 796.039 1108.76 860.643 1082 908 c 1
 853 428 l 1
 875 428 l 2
EndSplineSet
EndChar

StartChar: thorn
Encoding: 254 254 190
Width: 1657
GlyphClass: 2
Flags: HW
HStem: 0 21G<62 904> 0 21G<62 904> 473 253<784 960.796> 1098 240<784 973.074> 1516 20G<62 784>
VStem: 182 602<422 473 726 1098> 1025 601<782.856 1044.78>
LayerCount: 2
Fore
SplineSet
1626 910 m 0xbe
 1626 497.344 1206.15 473 784 473 c 1
 784 422 l 1
 904 399 l 1
 904 0 l 1
 62 0 l 1
 62 399 l 1
 182 422 l 1
 182 1119 l 1
 62 1142 l 1
 62 1536 l 1
 784 1536 l 1
 784 1338 l 1
 881 1338 l 2
 1278.33 1338 1626 1300.79 1626 910 c 0xbe
784 726 m 1
 941.319 726 1025 759.951 1025 919 c 0
 1025 1071.08 935.276 1098 784 1098 c 1
 784 726 l 1
EndSplineSet
EndChar

StartChar: Dcroat
Encoding: 272 272 202
Width: 1898
GlyphClass: 2
Flags: HW
HStem: 0 459<842 1134.55> 656 257<74 202 842 978> 1114 422<842 1135.97>
VStem: 1225 641<547.006 1022.66>
LayerCount: 2
Fore
SplineSet
1866 786 m 0
 1866 187.053 1442.09 0 842 0 c 2
 74 0 l 1
 74 434 l 1
 202 459 l 1
 202 656 l 1
 74 656 l 1
 74 913 l 1
 202 913 l 1
 202 1114 l 1
 74 1139 l 1
 74 1536 l 1
 1239 1536 l 1
 1615.6 1455.48 1866 1241.89 1866 786 c 0
940 459 m 2
 1109.88 459 1209.29 502.535 1220.5 652 c 0
 1223.5 692 1225 736.667 1225 786 c 256
 1225 1020.52 1180.73 1114 940 1114 c 2
 842 1114 l 1
 842 913 l 1
 978 913 l 1
 978 656 l 1
 842 656 l 1
 842 459 l 1
 940 459 l 2
EndSplineSet
EndChar

StartChar: dcroat
Encoding: 273 273 203
Width: 1790
GlyphClass: 2
Flags: HW
HStem: 0 422<797 1069.65> 598 256<74 195 797 925> 1025 383<797 1075.75>
VStem: 1157 602<504.665 941.464>
LayerCount: 2
Fore
SplineSet
1759 723 m 0
 1759 166.445 1354.59 0 797 0 c 2
 75 0 l 1
 75 399 l 1
 195 422 l 1
 195 598 l 1
 74 598 l 1
 74 854 l 1
 195 854 l 1
 195 1025 l 1
 75 1048 l 1
 75 1408 l 1
 1170 1408 l 1
 1519.65 1333.44 1759 1145.71 1759 723 c 0
889 422 m 2
 1108.81 422 1157 501.304 1157 723 c 256
 1157 940.373 1109.66 1025 889 1025 c 2
 797 1025 l 1
 797 854 l 1
 925 854 l 1
 925 598 l 1
 797 598 l 1
 797 422 l 1
 889 422 l 2
EndSplineSet
EndChar

StartChar: dotlessi
Encoding: 305 305 211
Width: 978
GlyphClass: 2
Flags: HW
HStem: 0 21G<66 908> 0 21G<66 908> 1388 20G<66 908> 1388 20G<66 908>
VStem: 66 842<0 399 1014 1408> 186 602<422 991>
LayerCount: 2
Fore
SplineSet
66 1408 m 1xa8
 908 1408 l 1
 908 1014 l 1xa8
 788 991 l 1
 788 422 l 1xa4
 908 399 l 1
 908 0 l 1
 66 0 l 1
 66 399 l 1xa8
 186 422 l 1
 186 991 l 1xa4
 66 1014 l 1
 66 1408 l 1xa8
EndSplineSet
EndChar

StartChar: Lslash
Encoding: 321 321 216
Width: 1353
GlyphClass: 2
Flags: HW
HStem: 0 21G<74 1294> 0 21G<74 1294> 640 256<74 202 842 1014> 1516 20G<74 970>
LayerCount: 2
Fore
SplineSet
842 384 m 1xb0
 971.026 384 1063.4 445.517 1127 512 c 1
 1294 512 l 1
 1294 0 l 1
 74 0 l 1
 74 434 l 1
 202 459 l 1
 202 640 l 1
 74 640 l 1
 74 896 l 1
 202 896 l 1
 202 1077 l 1
 74 1102 l 1
 74 1536 l 1
 970 1536 l 1
 970 1102 l 1
 842 1077 l 1
 842 896 l 1
 1014 896 l 1
 1014 640 l 1
 842 640 l 1
 842 384 l 1xb0
EndSplineSet
EndChar

StartChar: lslash
Encoding: 322 322 217
Width: 1279
GlyphClass: 2
Flags: HW
HStem: 0 21G<76 1220> 0 21G<76 1220> 640 256<76 196 797 886> 1393 20G<76 918>
LayerCount: 2
Fore
SplineSet
797 384 m 1xb0
 914.421 384 997.647 448.345 1053 512 c 1
 1220 512 l 1
 1220 0 l 1
 76 0 l 1
 76 399 l 1
 196 422 l 1
 196 640 l 1
 76 640 l 1
 76 896 l 1
 196 896 l 1
 196 991 l 1
 76 1014 l 1
 76 1413 l 1
 918 1413 l 1
 918 1014 l 1
 797 991 l 1
 797 896 l 1
 886 896 l 1
 886 640 l 1
 797 640 l 1
 797 384 l 1xb0
EndSplineSet
EndChar

StartChar: OE
Encoding: 338 338 224
Width: 2494
GlyphClass: 2
Flags: HW
HStem: -40 505<776.631 1184.69> 0 465<935.586 1183.46 1827 2312.57> 1075 461<1827 2269.56> 1102 474<775.44 1183.16>
VStem: 35 640<568.925 999.142> 1187 640<482.508 655 879 1074.55>
LayerCount: 2
Fore
SplineSet
1827 459 m 1x2c
 2058.07 459 2252.7 481.679 2416 540 c 1
 2416 0 l 1
 1257 0 l 1x6c
 1158.33 -26.667 1049.33 -40 930 -40 c 0
 377.599 -40 35 231.517 35 786 c 0
 35 1329.1 388.275 1576 930 1576 c 0x9c
 1052 1576 1164 1562.67 1266 1536 c 1
 2422 1536 l 1
 2422 984 l 1
 2263.73 1047.82 2060.64 1075 1827 1075 c 1
 1827 879 l 1
 2121 944 l 1
 2121 590 l 1
 1827 655 l 1
 1827 459 l 1x2c
1187 1060 m 1
 1117.18 1088.75 1033.44 1102 930 1102 c 0
 733.971 1102 675 979.712 675 786 c 256
 675 591.717 733.353 465 930 465 c 0x9c
 1030.52 465 1111.52 473.147 1187 492 c 1
 1187 1060 l 1
EndSplineSet
EndChar

StartChar: oe
Encoding: 339 339 225
Width: 2346
GlyphClass: 2
Flags: HW
HStem: -37 465<729.326 1110.93> 0 402<1716 1982.85> 1006 402<1716 1976.24> 1014 436<728.878 1110.73>
VStem: 34 602<519.917 923.418> 1114 602<445.48 623 789 997.259>
LayerCount: 2
Fore
SplineSet
875 -37 m 0x8c
 361.501 -37 34 207.93 34 723 c 0
 34 1228.78 372.6 1450 875 1450 c 0x9c
 995 1450 1106.67 1436 1210 1408 c 1
 2270 1408 l 1
 2270 896 l 1
 2103 896 l 1
 2011.08 963.41 1874.67 1006 1716 1006 c 1
 1716 789 l 1
 1992 848 l 1
 1992 563 l 1
 1716 623 l 1
 1716 402 l 1
 1875.52 402 2012.51 442.632 2103 512 c 1
 2270 512 l 1
 2270 0 l 1
 1183 0 l 1x6c
 1089 -24.667 986.333 -37 875 -37 c 0x8c
1114 987 m 1
 1045.44 1006.04 966.119 1014 875 1014 c 0
 693.443 1014 636 904.385 636 725 c 0
 636 543.006 690.732 428 875 428 c 0
 975.242 428 1049.77 435.928 1114 458 c 1
 1114 987 l 1
EndSplineSet
EndChar

StartChar: florin
Encoding: 402 402 251
Width: 1472
GlyphClass: 2
Flags: HW
HStem: -128 342<373.108 658.968> 808 187<231 443 1031 1260> 1284 321<796.968 1109.11>
VStem: 41 330<216.011 359.522> 443 588<214.22 808 995 1282.11> 1114 310<1131 1277.94>
LayerCount: 2
Fore
SplineSet
404 214 m 0
 441.942 214 443.004 338.13 443.004 398.062 c 2
 443 408 l 1
 443 808 l 1
 211 808 l 1
 231 995 l 1
 443 995 l 1
 452.171 1383.85 596.936 1605 997 1605 c 0
 1280.92 1605 1424 1453.59 1424 1164 c 0
 1424 1153.44 1423 1141.56 1423 1131 c 1
 1106 1131 l 1
 1111.22 1144.91 1114 1172.82 1114 1194 c 0
 1114 1231.27 1107.96 1284 1072 1284 c 0
 1036.06 1284 1031 1208.09 1031 1150 c 2
 1031 995 l 1
 1280 995 l 1
 1260 808 l 1
 1031 808 l 1
 1031 412 l 2
 1031 83.5322 824.936 -128 493 -128 c 0
 255.158 -128 41 -7.74609 41 229 c 0
 41 269.667 48 313.667 62 361 c 1
 376 361 l 1
 373.413 345.476 371 313.542 371 292 c 0
 371 260.69 373.863 214 404 214 c 0
EndSplineSet
EndChar

StartChar: circumflex
Encoding: 710 710 280
Width: 1338
GlyphClass: 2
Flags: HW
HStem: 1664 639<425 510 829 915>
LayerCount: 2
Fore
SplineSet
85 1664 m 1
 425 2303 l 1
 915 2303 l 1
 1254 1664 l 1
 829 1664 l 1
 670 2047 l 1
 510 1664 l 1
 85 1664 l 1
EndSplineSet
EndChar

StartChar: caron
Encoding: 711 711 281
Width: 1334
GlyphClass: 2
Flags: HW
HStem: 1664 639<423 508 827 913>
LayerCount: 2
Fore
SplineSet
508 2303 m 1
 668 1920 l 1
 827 2303 l 1
 1252 2303 l 1
 913 1664 l 1
 423 1664 l 1
 83 2303 l 1
 508 2303 l 1
EndSplineSet
EndChar

StartChar: breve
Encoding: 728 728 282
Width: 899
GlyphClass: 2
Flags: HW
HStem: 1535 293<355.772 543.263>
LayerCount: 2
Fore
SplineSet
852 1980 m 1
 852 1721.33 701.391 1535 449 1535 c 0
 197.227 1535 48 1724.36 48 1980 c 1
 317 1980 l 1
 317 1894.02 366.162 1828 450 1828 c 256
 533.32 1828 583 1894.36 583 1980 c 1
 852 1980 l 1
EndSplineSet
EndChar

StartChar: dotaccent
Encoding: 729 729 283
Width: 817
GlyphClass: 2
Flags: HW
HStem: 1664 512<89 729>
VStem: 89 640<1664 2176>
LayerCount: 2
Fore
SplineSet
89 2176 m 1
 729 2176 l 1
 729 1664 l 1
 89 1664 l 1
 89 2176 l 1
EndSplineSet
EndChar

StartChar: ring
Encoding: 730 730 284
Width: 899
GlyphClass: 2
Flags: HW
HStem: 1536 188<334.168 564.991> 2116 196<334.278 564.198>
VStem: 48 229<1783.01 2058.11> 623 229<1782.91 2053.44>
LayerCount: 2
Fore
SplineSet
449 2312 m 256
 683.846 2312 852 2164.11 852 1926 c 0
 852 1685.79 685.619 1536 449 1536 c 0
 213.689 1536 48 1686.91 48 1926 c 0
 48 2163.73 214.324 2312 449 2312 c 256
450 1724 m 256
 559.135 1724 623 1809.03 623 1921 c 0
 623 2032.04 557.254 2116 449 2116 c 0
 340.555 2116 277 2032.27 277 1921 c 0
 277 1808.41 340.139 1724 450 1724 c 256
EndSplineSet
EndChar

StartChar: ogonek
Encoding: 731 731 285
Width: 750
GlyphClass: 2
Flags: HW
HStem: -876 323<399.995 689.464>
VStem: 54 320<-527.545 -280.643>
LayerCount: 2
Fore
SplineSet
437 -876 m 0
 191.524 -876 54 -739.561 54 -492 c 0
 54 -340.83 119.321 -227.518 181 -135 c 0
 217.667 -80.333 260.333 -28.667 309 20 c 1
 643 20 l 1
 540.415 -79.8857 432.092 -197.54 385.5 -349.5 c 0
 377.833 -374.5 374 -398.667 374 -422 c 0
 374 -512.698 420.523 -553 510 -553 c 0
 554.667 -553 615.667 -540.333 693 -515 c 1
 693 -832 l 1
 619.482 -856.123 527.106 -876 437 -876 c 0
EndSplineSet
EndChar

StartChar: tilde
Encoding: 732 732 286
Width: 1001
GlyphClass: 2
Flags: HW
HStem: 1538 377<548.924 852.017> 1634 396<153.781 452.278>
LayerCount: 2
Fore
SplineSet
290 2030 m 0x40
 438.391 2030 524.466 1915 675 1915 c 0
 798.697 1915 876.317 1964.62 954 2036 c 1
 894 1619 l 1
 858.604 1569.22 808.211 1538 733 1538 c 0x80
 585.036 1538 490.438 1634 341 1634 c 0
 219.036 1634 137.809 1592.63 58 1529 c 1
 120 1955 l 1
 161.636 2002.26 211.185 2030 290 2030 c 0x40
EndSplineSet
EndChar

StartChar: hungarumlaut
Encoding: 733 733 287
Width: 1701
GlyphClass: 2
Flags: HW
HStem: 1664 640<335 491 1129 1159>
LayerCount: 2
Fore
SplineSet
1159 1664 m 1
 724 1664 l 1
 1129 2304 l 1
 1619 2304 l 1
 1159 1664 l 1
491 1664 m 1
 86 1664 l 1
 335 2304 l 1
 825 2304 l 1
 491 1664 l 1
EndSplineSet
EndChar

StartChar: uni030F
Encoding: 783 783 288
Width: 1548
GlyphClass: 2
Flags: HW
HStem: 1664 640<648 734 1199 1385>
LayerCount: 2
Fore
SplineSet
734 2304 m 1
 1224 2304 l 1
 1463 1664 l 1
 1038 1664 l 1
 734 2304 l 1
83 2304 m 1
 573 2304 l 1
 912 1664 l 1
 487 1664 l 1
 83 2304 l 1
EndSplineSet
EndChar

StartChar: uni0311
Encoding: 785 785 289
Width: 920
GlyphClass: 2
Flags: HW
HStem: 1535 21G<58 327 593 862> 1687 293<365.904 553.355>
LayerCount: 2
Fore
SplineSet
460 1687 m 256
 376.25 1687 327 1620.69 327 1535 c 1
 58 1535 l 1
 58 1792.48 208.029 1980 459 1980 c 0
 712.145 1980 862 1791.87 862 1535 c 1
 593 1535 l 1
 593 1620.37 543.234 1687 460 1687 c 256
EndSplineSet
EndChar

StartChar: Delta
Encoding: 916 916 291
AltUni2: 002206.ffffffff.0
Width: 1424
GlyphClass: 2
Flags: HW
HStem: 0 216<560 831>
DStem2: 31 0 560 216 0.237262 0.971446<335.344 1001.73>
LayerCount: 2
Fore
SplineSet
1363 0 m 1
 31 0 l 1
 317 1171 l 1
 1063 1171 l 1
 1363 0 l 1
560 216 m 1
 831 216 l 1
 695 869 l 1
 560 216 l 1
EndSplineSet
EndChar

StartChar: mu
Encoding: 956 956 292
Width: 1831
GlyphClass: 2
Flags: HW
HStem: -38 466<796.608 1104.17> 1014 394<57 131.797 763.203 838 1079 1153.8 1697.58 1773>
VStem: 177 542<497.505 991> 1199 452<520.953 991>
LayerCount: 2
Fore
SplineSet
998 -38 m 0
 869.785 -38 776.313 -5.54883 690 46 c 1
 690 -255 l 1
 177 -255 l 1
 177 991 l 1
 57 1014 l 1
 57 1408 l 1
 838 1408 l 1
 838 1014 l 1
 718 991 l 1
 719 541 l 1
 769.421 479.753 844.93 428 958 428 c 0
 1141.2 428 1200 542.371 1200 723 c 0
 1200 730 1200 730 1200 745.5 c 0
 1200 770.226 1199 798.455 1199 825.5 c 2
 1199 991 l 1
 1079 1014 l 1
 1079 1408 l 1
 1773 1408 l 1
 1773 1014 l 1
 1652 991 l 1
 1651.33 971 1651 951.5 1651 932.5 c 2
 1651 723 l 2
 1651 267.168 1443.04 -38 998 -38 c 0
EndSplineSet
EndChar

StartChar: endash
Encoding: 8211 8211 293
Width: 656
GlyphClass: 2
Flags: HW
HStem: 640 256<71 583>
VStem: 71 512<640 896>
LayerCount: 2
Fore
SplineSet
583 896 m 1
 583 640 l 1
 71 640 l 1
 71 896 l 1
 583 896 l 1
EndSplineSet
EndChar

StartChar: emdash
Encoding: 8212 8212 294
Width: 842
GlyphClass: 2
Flags: HW
HStem: 640 256<71 769>
LayerCount: 2
Fore
SplineSet
769 896 m 1
 769 640 l 1
 71 640 l 1
 71 896 l 1
 769 896 l 1
EndSplineSet
EndChar

StartChar: quoteleft
Encoding: 8216 8216 295
Width: 784
GlyphClass: 2
Flags: HW
VStem: 73 640<640 1152>
LayerCount: 2
Fore
SplineSet
713 640 m 1
 73 640 l 1
 73 1151 l 2
 73 1447.66 292.068 1576 585 1576 c 1
 585 1280 l 1
 508.197 1276.16 458 1234.78 458 1152 c 1
 713 1152 l 1
 713 640 l 1
EndSplineSet
EndChar

StartChar: quoteright
Encoding: 8217 8217 296
Width: 773
GlyphClass: 2
Flags: HW
HStem: 1516 20G<62 702>
VStem: 62 640<1024 1536>
LayerCount: 2
Fore
SplineSet
62 1536 m 1
 702 1536 l 1
 702 1025 l 2
 702 716.276 494.003 572 190 572 c 1
 190 896 l 1
 265.41 899.969 317 942.342 317 1024 c 1
 62 1024 l 1
 62 1536 l 1
EndSplineSet
EndChar

StartChar: quotesinglbase
Encoding: 8218 8218 297
Width: 780
GlyphClass: 2
Flags: HW
VStem: 72 640<0 512>
LayerCount: 2
Fore
SplineSet
72 512 m 1
 712 512 l 1
 712 1 l 2
 712 -307.724 504.003 -452 200 -452 c 1
 200 -128 l 1
 275.41 -124.031 327 -81.6582 327 0 c 1
 72 0 l 1
 72 512 l 1
EndSplineSet
EndChar

StartChar: quotedblleft
Encoding: 8220 8220 298
Width: 1552
GlyphClass: 2
Flags: HW
HStem: 640 512<458 713 1226 1481> 1280 296<491.723 585 1259.72 1353>
VStem: 73 640<640 1152> 841 640<640 1152>
LayerCount: 2
Fore
SplineSet
1481 640 m 1
 841 640 l 1
 841 1151 l 2
 841 1447.66 1060.07 1576 1353 1576 c 1
 1353 1280 l 1
 1276.2 1276.16 1226 1234.78 1226 1152 c 1
 1481 1152 l 1
 1481 640 l 1
713 640 m 1
 73 640 l 1
 73 1151 l 2
 73 1447.66 292.068 1576 585 1576 c 1
 585 1280 l 1
 508.197 1276.16 458 1234.78 458 1152 c 1
 713 1152 l 1
 713 640 l 1
EndSplineSet
EndChar

StartChar: quotedblright
Encoding: 8221 8221 299
Width: 1541
GlyphClass: 2
Flags: HW
HStem: 572 324<190 286.159 958 1054.16> 1024 512<62 317 830 1085>
VStem: 62 640<1024 1536> 830 640<1024 1536>
LayerCount: 2
Fore
SplineSet
830 1536 m 1
 1470 1536 l 1
 1470 1025 l 2
 1470 716.276 1262 572 958 572 c 1
 958 896 l 1
 1033.41 899.968 1085 942.343 1085 1024 c 1
 830 1024 l 1
 830 1536 l 1
62 1536 m 1
 702 1536 l 1
 702 1025 l 2
 702 716.276 494.003 572 190 572 c 1
 190 896 l 1
 265.41 899.969 317 942.342 317 1024 c 1
 62 1024 l 1
 62 1536 l 1
EndSplineSet
EndChar

StartChar: quotedblbase
Encoding: 8222 8222 300
Width: 1548
GlyphClass: 2
Flags: HW
HStem: -452 324<200 296.159 968 1064.16> 0 512<72 327 840 1095>
VStem: 72 640<0 512> 840 640<0 512>
LayerCount: 2
Fore
SplineSet
840 512 m 1
 1480 512 l 1
 1480 1 l 2
 1480 -307.724 1272 -452 968 -452 c 1
 968 -128 l 1
 1043.41 -124.031 1095 -81.6582 1095 0 c 1
 840 0 l 1
 840 512 l 1
72 512 m 1
 712 512 l 1
 712 1 l 2
 712 -307.724 504.003 -452 200 -452 c 1
 200 -128 l 1
 275.41 -124.031 327 -81.6582 327 0 c 1
 72 0 l 1
 72 512 l 1
EndSplineSet
EndChar

StartChar: dagger
Encoding: 8224 8224 301
Width: 1010
GlyphClass: 2
Flags: HW
HStem: 960 320<56 312 696 952> 1516 20G<312 696>
VStem: 312 384<320 960 1280 1536>
LayerCount: 2
Fore
SplineSet
56 1280 m 1
 312 1280 l 1
 312 1536 l 1
 696 1536 l 1
 696 1280 l 1
 952 1280 l 1
 952 960 l 1
 696 960 l 1
 696 320 l 1
 312 320 l 1
 312 960 l 1
 56 960 l 1
 56 1280 l 1
EndSplineSet
EndChar

StartChar: daggerdbl
Encoding: 8225 8225 302
Width: 1045
GlyphClass: 2
Flags: HW
HStem: 448 320<74 330 714 970> 960 320<74 330 714 970> 1516 20G<330 714>
VStem: 330 384<320 448 768 960 1280 1536>
LayerCount: 2
Fore
SplineSet
74 1280 m 1
 330 1280 l 1
 330 1536 l 1
 714 1536 l 1
 714 1280 l 1
 970 1280 l 1
 970 960 l 1
 714 960 l 1
 714 768 l 1
 970 768 l 1
 970 448 l 1
 714 448 l 1
 714 320 l 1
 330 320 l 1
 330 448 l 1
 74 448 l 1
 74 768 l 1
 330 768 l 1
 330 960 l 1
 74 960 l 1
 74 1280 l 1
EndSplineSet
EndChar

StartChar: bullet
Encoding: 8226 8226 303
Width: 886
GlyphClass: 2
Flags: HW
HStem: 286 707<247.437 637.314>
VStem: 59 769<467.41 813.533>
LayerCount: 2
Fore
SplineSet
442 993 m 256
 661.789 993 828 863.303 828 641 c 0
 828 417.74 662.338 286 442 286 c 256
 221.648 286 59 418.251 59 641 c 0
 59 862.435 222.898 993 442 993 c 256
EndSplineSet
EndChar

StartChar: ellipsis
Encoding: 8230 8230 304
Width: 2556
GlyphClass: 2
Flags: HW
HStem: 0 512<73 713 960 1600 1847 2487>
VStem: 73 640<0 512> 960 640<0 512> 1847 640<0 512>
CounterMasks: 1 70
LayerCount: 2
Fore
SplineSet
1847 512 m 1
 2487 512 l 1
 2487 0 l 1
 1847 0 l 1
 1847 512 l 1
960 512 m 1
 1600 512 l 1
 1600 0 l 1
 960 0 l 1
 960 512 l 1
73 512 m 1
 713 512 l 1
 713 0 l 1
 73 0 l 1
 73 512 l 1
EndSplineSet
EndChar

StartChar: perthousand
Encoding: 8240 8240 305
Width: 4830
GlyphClass: 2
Flags: HW
HStem: -42 375<2676.02 2916.02 4048.02 4288.02> 0 21G<1204 1849> 0 21G<1204 1849> 378 375<542.019 782.023> 804 351<2675.31 2916.72 4047.31 4288.72> 1224 351<541.311 782.716> 1516 20G<1583 2228>
VStem: 55 434<813.569 1163.46> 836 434<813.747 1163.27> 1204 640<0 640> 1588 640<896 1536> 2189 434<393.569 743.464> 2970 434<393.747 743.271> 3561 434<393.569 743.464> 4342 434<393.747 743.271>
DStem2: 1204 0 1844 0 0.242536 0.970142<155.223 1583.27>
LayerCount: 2
Fore
SplineSet
1270 990 m 0x1d8e
 1270 596.486 1049.55 378 662 378 c 256
 274.124 378 55 596.046 55 990 c 0
 55 1376.9 279.975 1575 662 1575 c 0
 1043.49 1575 1270 1376.38 1270 990 c 0x1d8e
1588 1536 m 1x5b2e
 2228 1536 l 1x5b2e
 1844 0 l 1
 1204 0 l 1x5b4e
 1588 1536 l 1x5b2e
836 990 m 256x1d8e
 836 1126.01 799.534 1224 662 1224 c 256
 523.995 1224 489 1126.64 489 990 c 256
 489 853.071 523.562 753 662 753 c 256
 799.969 753 836 853.69 836 990 c 256x1d8e
4776 570 m 0
 4776 176.487 4555.55 -42 4168 -42 c 256x990e
 3780.12 -42 3561 176.046 3561 570 c 0
 3561 956.902 3785.97 1155 4168 1155 c 0
 4549.49 1155 4776 956.383 4776 570 c 0
3404 570 m 0
 3404 176.487 3183.55 -42 2796 -42 c 256
 2408.12 -42 2189 176.046 2189 570 c 0x991e
 2189 956.902 2413.97 1155 2796 1155 c 0
 3177.49 1155 3404 956.383 3404 570 c 0
4342 570 m 256
 4342 706.005 4305.53 804 4168 804 c 256
 4030 804 3995 706.638 3995 570 c 256
 3995 433.071 4029.56 333 4168 333 c 256
 4305.97 333 4342 433.69 4342 570 c 256
2970 570 m 256
 2970 706.005 2933.53 804 2796 804 c 256
 2658 804 2623 706.638 2623 570 c 256
 2623 433.071 2657.56 333 2796 333 c 256
 2933.97 333 2970 433.69 2970 570 c 256
EndSplineSet
EndChar

StartChar: guilsinglleft
Encoding: 8249 8249 306
Width: 885
GlyphClass: 2
Flags: HW
HStem: 1401 20G<766.802 806>
LayerCount: 2
Fore
SplineSet
472 627 m 1
 806 464 l 1
 806 -17 l 1
 73 357 l 1
 73 1047 l 1
 806 1421 l 1
 806 789 l 1
 472 627 l 1
EndSplineSet
EndChar

StartChar: guilsinglright
Encoding: 8250 8250 307
Width: 882
GlyphClass: 2
Flags: HW
HStem: 1401 20G<78 117.198>
LayerCount: 2
Fore
SplineSet
78 789 m 1
 78 1421 l 1
 811 1047 l 1
 811 357 l 1
 78 -17 l 1
 78 464 l 1
 412 627 l 1
 78 789 l 1
EndSplineSet
EndChar

StartChar: fraction
Encoding: 8260 8260 308
Width: 1098
GlyphClass: 2
Flags: HW
HStem: 0 21G<37 682> 0 21G<37 682> 1516 20G<416 1061>
VStem: 37 640<0 640> 421 640<896 1536>
DStem2: 37 0 677 0 0.242536 0.970142<155.223 1583.27>
LayerCount: 2
Fore
SplineSet
421 1536 m 1xa8
 1061 1536 l 1xa8
 677 0 l 1
 37 0 l 1xb0
 421 1536 l 1xa8
EndSplineSet
EndChar

StartChar: foursuperior
Encoding: 8308 8308 309
Width: 1183
GlyphClass: 2
Flags: HW
HStem: 512 293<398 471.367 930.633 1004> 912 173<301 485 917 1133>
VStem: 485 432<822 912 1085 1301>
DStem2: 52 1085 301 1085 0.682262 0.731108<169.883 453.339>
LayerCount: 2
Fore
SplineSet
52 1085 m 1
 485 1549 l 1
 917 1576 l 1
 917 1085 l 1
 1133 1085 l 1
 1133 912 l 1
 917 912 l 1
 917 822 l 1
 1004 805 l 1
 1004 512 l 1
 398 512 l 1
 398 805 l 1
 485 822 l 1
 485 912 l 1
 52 912 l 1
 52 1085 l 1
301 1085 m 1
 485 1085 l 1
 485 1301 l 1
 301 1085 l 1
EndSplineSet
EndChar

StartChar: Euro
Encoding: 8364 8364 310
Width: 1639
GlyphClass: 2
Flags: HW
HStem: -40 475<900.351 1346.95> 571 166<56 173 810 1056> 835 166<56 173 818 1056> 1143 433<912.36 1182.46>
LayerCount: 2
Fore
SplineSet
985 -40 m 0
 539.617 -40 263.799 192.448 191 571 c 1
 56 571 l 1
 56 737 l 1
 173 737 l 1
 172.333 745 172 753 172 761 c 2
 172 810.5 l 2
 172 818.833 172.333 827 173 835 c 1
 56 835 l 1
 56 1001 l 1
 191 1001 l 1
 261.997 1378.81 531.146 1576 977 1576 c 0
 1218.48 1576 1409.79 1525.3 1569 1450 c 1
 1569 973 l 1
 1288 973 l 1
 1239.87 1061.23 1169.43 1143 1056 1143 c 0
 945.719 1143 864.207 1076.91 818 1001 c 1
 1056 1001 l 1
 1056 835 l 1
 765 835 l 1
 763.658 818.896 763 803.438 763 786 c 256
 763 769.296 763.631 752.045 765 737 c 1
 1056 737 l 1
 1056 571 l 1
 810 571 l 1
 861.597 478.126 952.758 435 1094 435 c 0
 1265.92 435 1420.49 490.547 1569 552 c 1
 1569 71 l 1
 1390.83 8.11523 1204.86 -40 985 -40 c 0
EndSplineSet
EndChar

StartChar: trademark
Encoding: 8482 8482 311
Width: 2378
GlyphClass: 2
Flags: HW
HStem: 640 253<242 317 690 765 1035 1110 2230 2305> 1237 299<56 227.579 779.359 952> 1283 253<1035 1110 2230 2305> 1312 224<211.064 317 690 793.675>
VStem: 317 373<907 1312>
LayerCount: 2
Fore
SplineSet
1483 1077 m 1xa8
 1483 640 l 1
 1035 640 l 1
 1035 893 l 1
 1110 907 l 1
 1110 1269 l 1
 1035 1283 l 1
 1035 1536 l 1xa8
 1483 1536 l 1
 1670 1192 l 1
 1857 1536 l 1x98
 2305 1536 l 1
 2305 1283 l 1
 2230 1269 l 1
 2230 907 l 1
 2305 893 l 1
 2305 640 l 1
 1857 640 l 1
 1857 1077 l 1
 1670 755 l 1
 1483 1077 l 1xa8
317 1312 m 1x98
 255.252 1312 211.419 1272.64 184 1237 c 1
 56 1237 l 1
 56 1536 l 1
 952 1536 l 1
 952 1237 l 1
 823 1237 l 1xc8
 792.946 1272.52 755.159 1312 690 1312 c 1
 690 907 l 1
 765 893 l 1
 765 640 l 1
 242 640 l 1
 242 893 l 1
 317 907 l 1
 317 1312 l 1x98
EndSplineSet
EndChar

StartChar: minus
Encoding: 8722 8722 312
Width: 916
GlyphClass: 2
Flags: HW
HStem: 512 384<74 842>
LayerCount: 2
Fore
SplineSet
74 896 m 1
 842 896 l 1
 842 512 l 1
 74 512 l 1
 74 896 l 1
EndSplineSet
EndChar

StartChar: integral
Encoding: 8747 8747 313
Width: 1476
GlyphClass: 2
Flags: HW
HStem: -128 342<378.108 663.968> 1284 321<795.63 1114.11>
VStem: 46 330<216.011 359.522> 448 588<214.22 1276> 1119 310<1131 1277.94>
LayerCount: 2
Fore
SplineSet
409 214 m 0
 446.942 214 448.004 338.13 448.004 398.062 c 2
 448 408 l 1
 448 958 l 2
 448 1368.59 589.261 1605 1002 1605 c 0
 1285.92 1605 1429 1453.59 1429 1164 c 0
 1429 1153.44 1428 1141.56 1428 1131 c 1
 1111 1131 l 1
 1116.22 1144.91 1119 1172.82 1119 1194 c 0
 1119 1231.27 1112.96 1284 1077 1284 c 0
 1041.06 1284 1036 1208.09 1036 1150 c 2
 1036 412 l 2
 1036 83.5322 829.936 -128 498 -128 c 0
 260.158 -128 46 -7.74609 46 229 c 0
 46 269.667 53 313.667 67 361 c 1
 381 361 l 1
 378.413 345.476 376 313.542 376 292 c 0
 376 260.69 378.863 214 409 214 c 0
EndSplineSet
EndChar

StartChar: lozenge
Encoding: 9674 9674 314
Width: 1415
GlyphClass: 2
Flags: HW
HStem: 1 21G<320.591 1081.77> 1 21G<320.591 1081.77> 1516 20G<320.503 1081.86>
LayerCount: 2
Fore
SplineSet
328 1536 m 1xa0
 1074 1536 l 1
 1374 773 l 1
 1074 1 l 1
 328 1 l 1
 42 773 l 1
 328 1536 l 1xa0
706 303 m 1
 842 773 l 1
 706 1234 l 1
 571 773 l 1
 706 303 l 1
EndSplineSet
EndChar

